<svg version="1.1" id="Layer_1" xmlns="http://www.w3.org/2000/svg" x="0" y="0" viewBox="0 0 232.7 84.3" xml:space="preserve"><style>.st142{fill:#1aafbe}</style><path class="st142" d="M2.6 75.4h42v.8h-42zm188.1 0h42v.8h-42zM0 37.3zm.1 1.6c.1 0 .1 0 0 0zm32.3-5.5c-.1 0-.1-.1 0-.4 0-.1-.2-.3-.5-.4-.7-.2-1.3-.3-1.9-.3-.5-.1-.8 0-1.1.3-.5.1-.7.3-.7.4v.3l.3.1h.1l.1-.1v.2l-.7.1c-.2.1-.3.3-.3.4 0 .2.1.4.4.5 0 .7 0 1.2.1 1.6h.2v1.7c-.2.2-.4.4-.4.5-.3.2-.4.4-.4.5l-1.4.5-.3-.2.1-.1 1.1-.7v-.4h-.3l-.2-.2c-.5-.2-.8-.3-1.1-.3-.2 0-.4 0-.5.1l-.2.2v-.4c.3-.1.4-.2.5-.3-.1-.1-.3-.1-.5 0v-.6h.4c-.1-.1-.1-.3-.1-.5l-1-.5v-.3l.2-.2h.4c.1-.1.2-.4.2-.7.3-.3.4-.7.4-1.4.1 0 .2-.1.3-.2v-2.4c-.1 0-.1 0-.2.1l-.1-.1c0-.1.1-.1.2-.1-.1-.1-.1-.1-.1-.2l.2-.1v-.2c-.3 0-.5 0-.6.1v-.2l.4-.3h.2v-1.8c0-.1.1-.2.2-.2 0-.9 0-1.5.1-1.6h.2c0-.3 0-.8.1-1.5v-.6c0-.1.1-.1.3-.2 0-.3.1-.5.2-.6v-.4l.4-.3v-.7c-.1-.1-.2-.3-.2-.4 0-.2.1-.3.2-.4v-.3c-.1 0-.1-.1-.1-.4-.2-.1-.3-.1-.3-.2-.3-.1-.5-.3-.5-.4.1 0 0 0-.5.1l-.3-.2c-.2 0-.3 0-.3.1l-.4.2h-.4c-.1.1-.3.1-.5.2v.2l.2.1v.1c-.3.5-.5.8-.4 1.1-.3.2-.4.4-.4.5 0 .7-.5 1.6-.5 2h-.3c0 .4-.2 1.4-.2 1.8-.3.3-.4.5-.4.7-.1.1-.1.2 0 .3l.1.5.1.1c-.1 0-.2.4-.2 1.2-.1.1-.1.3 0 .7 0 .2 0 .4-.1.6.1.1.2.3.2.4.3.2.4.4.4.5-.1.1-.3.1-.4.1 0 1.3-.1 2-.2 2 0 .1 0 .1.1.2l-.3.4c-.3.8-.4 1.3-.5 1.4l-.6.7-.1 1.3c-.1 0-.2 0-.3.1v.3c-.2.1-.3.2-.3.4h-.2c-.4.7-.2 1.5-.7 2.2v.5h-.2c-.1.3-.3.4-.5.4v.1l.3.3c-.1.1-.2.1-.3.1l-.1.4c-.1.1-.2.1-.3.1l-.3-.3h-.8c-.1-.1-.1-.4-.1-.9-.1-.1-.2-.1-.3-.1V38c.1-.1.1-.3.1-.5h.2v-.3c-.1-.1-.1-.1-.2-.1 0-.1.1-.1.2-.1v-.7l-.4-.4c-.1-.3-.1-.4 0-.4v-1H16c-.1.1-.2.3-.2.4 0 .1.1.1.2.2v.2c-.3.1-.4.4-.4.7-.1-.1-.2-.1-.3-.1 0-.1 0-.2.1-.3h-.2v-.3h.1l.2-.3c0-.2-.1-.3-.2-.4l.1-.1-.2-.8.3-.6v-.7h.1V32c.1-.3.1-.6.1-.9.1.1.3.1.4 0v-1c-.1-.1-.1-.1-.2-.1l-.3.2c-.3-.2-.6-.3-.9-.3v-.2c.1 0 .2 0 .3.1.1-.1.4-.1.9-.1.2-.3.3-.6.3-.8.3-.1.5-.1.6-.1.1.1.2.1.5.1v.3H17v-.1h-.3c-.1.1-.1.2 0 .3.1 0 .2.2.4.5-.1 0-.2 0-.3.1l-.2.2c-.1.2-.1.4-.1.5h-.1c-.1.2.1.3.4.4h-.1v.3h.3c0-.1.1-.1.2-.2v-.4c.1 0 .1-.1.1-.2h-.2v-.3c.3-.1.4-.4.4-.8-.1-.1 0-.3.2-.4 0-.1-.1-.3-.2-.4.1-.4.2-.7.2-.9l.1.1v.3h.2c0-.5 0-.9.1-1 .1 0 .2 0 .3.1.1-.2.1-.4.1-.5 0-.3-.1-.4-.4-.5v-.2c.1 0 .1 0 .2.1v-.5h-.2c0-.1.1-.1.4-.2l.1-.8.3-.3c.1-1.4.3-2.4.4-3.1-.1-.1-.1-.1-.2-.1l.3-.3v-.4c-.2-.3-.3-.4-.3-.3.1-.1.2-.1.3-.1 0-.4-.3-.4-.3-.7h.3v-.1h-.3v-.4l.2-.1c-.4-.1-.7-.3-.8-.5-.3-.1-.6-.2-.9-.2h-.4l-.6.3-.6.3c-.1.1-.2.1-.3.1-.4.1-.7.2-.8.3-.1-.1-.3-.1-.5 0-.1-.1-.3-.1-.4-.2-.6.2-1 .4-1.1.5V21l.3.2v2.6c.1 0 .2 0 .4.1v.1c-.2 0-.3 0-.4.1 0 .1 0 .1.1.1v.2c-.2.1-.3.1-.3.2s.1.1.3.1v.5h-.4v.3c.2.1.8 1.7.8 1.4l-.7-.3h-.1v.4h.1l.1.1H13c-.1.1 0 .2.2.5-.1 0-.1 0-.1.1h-.2c-.1.1-.1.2-.1.4l.1.5c-.1.1-.2.2-.2.3l.1.1v.4c-.1-.1-.2-.1-.3-.1v.2h.3v.1h-.3c-.1.2-.1.4-.2.5-.2 1.5-.4 1.5-.4 2v.6c-.1 0-.1 0-.2.1-.1-.1-.1-.1-.2-.1v.3h.3c-.1.1-.1.2-.1.4h-.2c-.2 1.1-.3 1.8-.2 2.1-.1.1-.2.2-.2.5h.1c0 .2-.1.4-.2.5-.2 1-.3 1.4-.3 1.1-.3.3-.4.6-.4.7v.5H10v.2c-.1.1-.2.4-.3.7-.1.1-.2.1-.2.2-.9 1.3-.7 1.6-1 2.4-.3 0-.3.2-.2.6-.2.1-.3.3-.3.4l-.5.5c0 .3-.1.5-.4.6l-.9.6h-.1v-.6c.1-.5.1-.8.1-1.1-.1-.3-.2-.5-.1-.8l.4-.3.1.2h.6l.2-.3c.1-.1.2-.2.2-.3l.3-.1v-.2c-.1 0-.2 0-.3-.1v-.8c-.3-.1-.5-.4-.5-.7-.4-.2-.6-.4-.5-.6-.3-.2-.4-.4-.3-.5v-.2c.1-.1.2-.1.3-.1v-.7c-.2-.5-.2-.8-.1-1 .1-.2.1-.6 0-1.3h-.2c0-.1 0-.1.1-.2v-.1c-.2-.1-.4-.1-.5-.1V35H6c-.1-.1-.1-.1-.2-.1-.1.2 0 .5.1.8.2 0 .3.2.4.5l-.2.3c0 .1 0 .1-.1.2h-.4v-.1h-.3v-.1l.3-.1v-.7l-.5-.3c0-.1.1-.1.2-.1-.1-.4-.2-.7-.2-.9v-.9c0-.2 0-.4-.1-.5h.5v-.1c-.2-.1-.3-.2-.3-.3s0-.2.1-.3l.2.1V32h-.2c-.1-.2-.1-.3.2-.3v-.5c0-.1 0-.1.1-.2.1-.5.1-.9.1-1.1-.1-.5-.1-.7.2-.8.1.3.2-.3.2-1.8.1-.1.2-.3.2-.6l.2-.3h.1c-.1-.1-.1-.1-.1-.2h-.2v-.5c0-.1.1-.1.3-.2l-.3-.3c.3-.3.5-.7.5-1h.1v-.4c.3-1.9.6-3 .8-3.2h.2c0 .3 0 .7.1 1-.3.2-.4.4-.4.6v1.4l-.3.3c-.1.7-.1 1.2-.2 1.3 0 .7 0 1.2.1 1.5-.3.5-.5.8-.5 1.1 0 .1.1.2.2.3-.1 0-.1 0-.2.1.1.2.4.4.7.5-.2.1-.3.2-.3.3H7v-.3h-.3V30c0 .2 0 .3.1.4-.1 0-.1 0-.2.1v-.2h-.1l-.2.4.5.1v-.1h.1l-.1.3c.1 0 .1.1-.1.2 0 .2 0 .3.1.4.2-.1.4-.1.5-.1l-.1-.1h-.1c0-.1 0-.1.1-.1-.1-.4-.1-.7 0-.8h.1c0 .1 0 .1.1.2V30c.1 0 .1-.1.1-.2h-.1c0-.7.2-1.1.5-1.1v-.2h-.2c-.1-.1-.1-.2 0-.3l.2.2c0-.5 0-.8-.1-.9l.2-.3c.1-.3.3-.4.5-.5-.1-.1-.1-.1-.1-.2h-.2c-.1-.2 0-.4.3-.5-.1 0-.3-.1-.4-.2 0-.2.1-.4.2-.5l.4-.4c-.1-.1-.2-.3-.2-.4s.1-.2.4-.2c0-1 .2-1.6.6-1.8 0-.5.1-.8.3-.9v-.3h-.2l.3-.5c0-.5.1-.7.3-.8 0-.1 0-.2-.1-.3l.3-.6v-.8L10 18l-.4-.3-1.6.8-.5-.4c-.3-.1-.5-.1-.5 0h-.4c-.3.3-.4.4-.4.3-.3 0-.6.1-.7.2h-.2c-.2-.3-.5-.4-.9-.5-.1 0-.1 0-.1.1-.2-.1-.4-.2-.5-.2l-.8.7-.2.4.3.4H3c-.1.1-.1.3-.1.8l.3.1v.2h-.1c.1 0 .1.1.1.3-.1 0-.2 0-.2.1s.1.1.2.1v.4l-.3.3.2.4c0 .2 0 .4.1.5v.2c-.2.1-.3.3-.3.4v1.9c-.1.1-.1.3-.1.7-.2.2-.3.4-.3.7h.1c0-.1 0-.1.1-.1 0 .1 0 .2.1.3-.3.3.2.2-.5.9-.1.1 0 .2.1.5-.3.1-.1.9-.4 1-.2.5-.3.8-.4.9v.1c-.3.1-.4.3-.4.4 0 .1.1.3.3.5h-.1c0 .2 0 .4.1.5v.3c-.3.3-.4.6-.4.9l-.2.2c0 1.2-.1 1.8-.2 1.9v.4c.1.1.1.3 0 .6.3.6.4 1 .3 1.1v.5l-.4.2v.7l.2-.1.1 1.3c-.1 0-.1 0-.1.1-.1-.2-.1-.3-.2-.3v.5c.1.2.1.4.1.5h.1c0 .1 0 .2-.1.3v.3c.1.1.2.5.2 1 .1.1.3.1.5 0 0-.1 0-.1.1-.2l.2.2h-.1v.2l-.3.2c-.1-.1-.1-.1-.2-.1H1c.1.1.1.3.1.4h.2c0 .2 0 .3-.1.4v.4h.1v.3c.1.7.2 1.3.2 1.7 0 .1 0 .2-.1.3 0 .1.1.3.4.6-.1.1-.2.2-.2.3.3 0 .6 0 .9.1.1 0 .4-.1.9-.3 0-.1 0-.2.1-.3h.2c.3.6.5.9.8.9h1.3c.2-.2.5-.3.9-.3.1-.1.3-.1.5 0 0-.1 0-.1.1-.2.6-.2 1.1-.6 1.5-1.2H9c0-.3.2-.4.4-.4 0-.2 0-.4.1-.5.1-.4.4-.7.7-.9.3-1 .5-1.6.6-1.7l.2-.4.7-.4.1.1v1.4l.3.5-.3.3c0-.1 0 .2.1.7v.6c-.1.1-.1.3-.1.6h.3v.3c.3.1.4.4.4.8.2.1.3.2.3.4 0 .1-.1.3-.2.5v.3l.2.1v.2h.6l.2.2c.4-.1.7-.2.9-.2l.2-.2c.2 0 .4 0 .6.1h.7c0 .1.1.1.2.1h.1v-.2c0-.1.1-.1.2-.1 0 .1 0 .2.1.3h.4c.1-.1.2-.2.5-.3 0-.1.2-.2.5-.5 0-.2.1-.3.2-.4-.1-.1-.1-.1-.1-.2s.5-1 .5-1.5c-.1-.3-.1-.5 0-.7.8-.2 1.3-.5 1.4-.9.2-.7.3-1 .4-1.1 0-.5 0-.9.1-1h.3c0-.3.4-.6 1.3-.9h.1l.1.2c-.1 0-.2 0-.3.1v.2c.3.2.4.4.4.5h.1c.3.3.5.4.7.5h.1l.1.2c.3-.1.6-.2.8-.2l.1.1c-.1.1-.3.2-.4.2v.5c.5 0 .8.1.9.2.3-.1.6-.2 1.1-.2 0-.1 0-.1.1-.1h.6c0-.1.1-.2.2-.3-.3.1-.1.1.4.1.4-.5 1-1 1.9-1.6 0-.1.3-.5.9-1.2l.5-.4c.1-.3.2-.5.5-.5.1-.1.1-.3.1-.5.3-.2.4-.5.5-.9l.1-.1c.1-.5.2-.7.2-.6l-.1-.1v-.1l.3-.2v-.1l.1-.1v-.3c.4-.2.5-.5.3-1-.1-.1-.1-.5-.1-1.3zM.8 38.5c-.1-.1-.1-.1-.2-.1v.2c0-.1.1-.1.2-.1zm-.1.4l-.1.2h.1v-.2zm.2-1c-.1.1-.1.1-.1.2l.1-.2zm.2-.2zm0 2l.2-.1v.1h-.2zm.3.8c-.1 0-.1 0 0 0h-.3v-.6h.1c0 .2.1.4.2.6zm-.1.3c.1.3.1.5-.2.5v-.4l.2-.1zm-.1 6.1zm.1-13.3zm.4 9.1c-.1.1-.1.1-.1.2l.1-.2zm0 1.1c-.1.1-.1.1-.1.2l.1-.2zM2.3 25zm.5 1.2c-.1.1-.1.1-.2.1v-.1h.2zm.4-1.3l.1.2-.1-.2zM4.4 27c-.1.1-.2.7-.2 1.7-.1 0-.2 0-.3.1.2.1.3.3.3.4H4c-.4-.2-.6-.4-.7-.5l.4-.6v-.5c-.1-.1-.1-.1-.1-.2v-.1h.2c0-.1 0-.1.1-.1-.1-.1-.1-.3 0-.4 0-.3 0-.6.1-.7-.1-.1-.1-.3-.1-.4 0-.3.1-.4.3-.3v.7c.1.3.1.5.2.6-.1 0-.1 0-.1.1s0 .1.1.2zm-.8-4.1c-.1 0-.1 0 0 0-.2.1-.2.1-.2 0h.2zm-.2 6.6v-.2h.1l-.1.2zm.5.4c-.1.1-.1.1-.2.1v-.1c0-.1 0-.1.2 0zm.6 12.8c-.1 0-.3 0-.4.1l-.1-.1c0-.1.1-.2.2-.3 0 .1 0 .1.1.1l.2-.1v.3zm.6-19.8c-.1 0-.2 0-.3.1l-.2-.4c0-.1.1-.2.4-.2 0 .2 0 .4.1.5zM6 36.7c-.1-.1-.1-.2-.1-.3-.1-.1-.2 0-.2.3H6zm-.1-2.9l-.1.2.1-.2zm0 .3c-.1.2-.1.4-.1.5.2-.1.3-.1.3-.2s-.1-.2-.2-.3zm.5 3.3v-.3h-.3v-.2h-.3v.5l.4-.3.2.3zm-.3.5c0 .1 0 .2-.1.2h-.2v-.2h.3zm1-3.4c-.2 0-.3-.2-.2-.5h-.1c.1 0 .2 0 .3.1-.1-.3-.1-.6-.1-.8.1-.2.1-.5.1-.8h-.4c-.2.3-.3.6-.3.8-.3-.2-.4-.3-.4-.3h-.1l.1.2v.2c.1.1.3.1.4.1v.1c-.1 0-.2 0-.3.1 0 .1 0 .2.1.2h-.1v.2c.1-.1.2-.1.3-.1h.2l-.1.1c-.1.3 0 .5.2.6-.2.1-.3.3-.2.5l.6-.4v-.3zm-.3-2.8c-.1-.1-.1-.3-.1-.4h-.4c-.1.1-.1.2-.1.4h.2c-.1.2-.2.4-.1.5h.2V32h.1c0 .1 0 .2.1.3 0-.1 0-.1.1-.1v-.5zm-.4.8c-.1-.1-.1-.1-.2-.1 0 .2 0 .4.1.5.1-.1.1-.2.1-.4zm.2-1.5h-.3c0 .1 0 .1.1.2h.2V31zm.4 4.3c-.1 0-.2 0-.2.1l.1.1.1-.2zm.1-5.4c-.1 0-.1 0 0 0zm.4 2.1c-.1-.1-.2-.1-.3-.1 0 .1 0 .2.1.3-.1 0-.1.1-.1.3.2-.1.3-.2.3-.5zm.2-6c0 .1 0 .3-.1.4h-.2c0-.3.1-.5.2-.6.1.1.2.1.3.1v.1h-.2zm0-7c0-.1 0-.2.1-.3l-.1.3zm0 6.3l.2-.2c.1 0 .1.1.2.2h-.4zm.3-2.2v-.3h.1c0 .1 0 .2.1.3H8zm.2 1.6zm.5-1.6v-.2h.1l-.1.2zm.2-1V22H9l-.1.1zm0 3.6zm.3-4.1c0-.1 0-.1 0 0zm2.4 10.1l-.1.2h.1v-.2zm0 .7c-.1.1-.1.1 0 0zm.1 2.1zm.5-3.5c-.1-.1-.1-.1-.2-.1v.2l.2-.1zm.4-3.6c-.1.1-.1.1 0 .2.1 0 .1-.1 0-.2zm.3-2.8v.4c.1-.1.1-.2 0-.4zm.2 4l-.1-.2h.3v.2h-.2zm.1-4.9l-.1.2h.1v-.2zm.1 4.3h.2-.2zm.4-4.8c0 .1 0 .2-.1.2s-.1-.1-.1-.2h.2zm-.1 0V23v.2zm0 2.9zm.1-2.2zm1.2 1.7l.3-.1-.1-.1c-.2 0-.3 0-.4.1.1.2.2.4.2.5-.1 0-.2 0-.3-.1v.1l.2.3h.1c0 .1 0 .1.1.2-.1 0-.2.3-.3 1-.1 0-.3.1-.4.2v1.1c-.1.2-.1.4-.2.5v.2c-.1-.1-.2-.1-.3-.1-.1-.4-.1-.7 0-.8 0-1.3 0-1.9.1-1.7l.1-.9c.1-.1.2-.4.3-.9v-.4c0-.9.2-1.3.5-1.3l.3.4c-.1.1-.2.3-.2.5 0 .1.1.2.2.3 0 .4 0 .7.1.8v.2h-.3zm-.4-2.2zm.8 11c-.1.2-.1.3-.1.4-.2-.2-.3-.4-.2-.5.1 0 .2 0 .3.1zm.4-1.5c.1.1.1.2.1.4.3-.1.3-.2.2-.4h-.3zm0 4.4l.2-.1v.1h-.2zm.6-3.1c-.1-.3-.1-.5-.1-.6-.2 0-.2.1-.1.3-.1.1-.1.2-.1.5 0 .1 0 .1.1.1 0-.2.1-.3.2-.3zm.3-.7c-.2-.1-.4-.1-.5 0v.1c.1 0 .2 0 .3.1l.2-.2zm-.4-6.2zm.4 4.9h-.3c-.1.3-.1.5-.1.7h.1l.1.4c.1 0 .2 0 .3-.1l-.1-1zm-.3-.5zm1.9-5c0 .4-.2.5-.6.4 0-.1 0-.3-.1-.5-.1 0-.2 0-.2.1s.1.4.4.7c-.1.1-.1.2 0 .5l-.3-.2-.4.2.1.1c0 .1 0 .4-.1.7-.1 0-.2 0-.3.1v.1h-.1c-.1-.1-.1-.3-.1-.6 0-.2 0-.4.1-.6l-.1-.4c.1-.2.2-.4.2-.6h-.1c0-.3.1-.6.4-.7 0-.1.1-.4.2-.7v-.5c.3-.2.4-.4.3-.7 0-.1.1-.1.2-.1v1.1c-.1 0-.2.2-.2.6-.1.1-.1.2-.1.3.1.1.3.2.4.2-.1.2-.2.4-.1.5.1-.1.3-.1.5 0zM17 31.5c-.2.1-.2.1-.2.2-.1-.1-.2-.1-.3-.1 0 .3.1.5.4.5h.1v-.6zm0-.8c-.1 0-.2.1-.2.2-.1-.1-.1-.2-.1-.3.1 0 .2 0 .3.1zm0 1.5c-.1.1-.2.1-.2.2s0 .1.1.1h.1v-.3zm0-5.6c-.1 0-.2 0 0 0zm.4 1c-.1 0-.1 0 0 0zm.4-4.1c0 .2-.1.3-.2.4l-.1-.1c.1-.3.1-.5.1-.6.1 0 .2.1.2.3zm.3 22.1v-.2.2zm.3-22.5c0-.1 0-.2.1-.2h.2v.2h-.3zm.2-3.5c0-.1 0-.1.1-.2l-.1.2zm0 4.2zm.4 16.6zm.9-16.9c-.1 0-.1 0 0 0-.1 0-.1 0 0 0zm.4 19.3zm1.6-8.5V34h.1l-.1.3zm.4-3.2c-.1.1-.1.1-.2.1V31l.2.1zm-.2 1.9zm2.1-11.9zm1.5 20.8c-.1.1-.1.2-.1.3-.2-.1-.5-.1-.8 0-.1 0-.2 0-.2-.1l.1-.4c.3.1.6.1 1 .2v-.4c.3 0 .4.1.4.3l-.4.1zm-1-12c.1-.1.2-.1.3 0h-.3zm.4 3.5c-.1.1-.1.1-.2.1-.1-.1-.2-.2-.2-.3h.4v.2zm0-.9c-.1 0-.2 0-.2.1v.3c-.1-.1-.1-.2-.1-.5.1 0 .2 0 .3.1zm-.1-1.8h.2-.2zm.1 6zm.5-7.7c-.1-.1-.1-.1-.2-.1v.1h.2zm-.2 10.6zm2.3 1.7c-.1.1-.1.1-.1.2l.1-.2zm2-2.2v-.2h.1l-.1.2zm1.1-3.1c-.1-.1-.1-.2-.1-.3l.1.1v.2z"/><path class="st142" d="M51.1 33.9l-.1 1-.1.1c-.1.1-.2.7-.2 1.6-.1.1-.1.5-.2 1.1-.1.1-.1.2-.1.3h.1c0 .1 0 .1.1.2l-.3.1.2.4-.3.9v.5c-.1.2-.2.4-.5.6v.7c-.3.3-.6.9-1.1 1.8 0 .1-.1.1-.2.2 0 .3-.2.8-.6 1.5v.4l-.3.2v.2l-.7.6v.2c-.2.1-.3.3-.4.6-.7.3-.7.2-1.9 1-.2.1-.6.2-1.1.2l-.2.2h-.7c-.2-.1-.5-.1-1 .1-.1 0-.3 0-.6.1-.1-.1-.5-.1-1.1-.2-.1-.1-.5-.2-1-.3-.2 0-.5-.1-.8-.2h-.4c-.1-.1-.3-.2-.7-.3-.1 0-.2 0-.3-.1l-.5-.2c-.3-.1-1-.4-2.6-1.2h-.1c-1.2-.4-1.5-1.7-2-1.7v-.6c-.1-.1-.2-.3-.5-.5V43h-.3c-.1-.2-.1-.4-.1-.6 0-.1 0-.3.1-.5 0-.1-.1-.2-.2-.4 0-.5 0-1.5-.1-3 0-.1-.1-.1-.2-.2v-.2h.1c0-.4-.5-1.6-.5-2.3 0-.7 0-1.1.1-1.4 0-.3 0-.3 0 0-.1 0-.1-.1-.1-.2l.1-.1c0-.6.1-.9.2-1V33c-.1-.1-.1-.3-.1-.5s.1-.4.2-.7c-.1-.2-.1-.6 0-1.2.1-.1.2-.5.3-1.2v-1.8h.1l.3-.4c.1-.2.2-.5.1-.9.1-.1.2-.4.2-.9.3-.1.4-.4.3-.7-.1 0-.1-.1-.1-.2.1-.2.1-.6.1-1.2.3-.1.4-.4.4-.9.1-.1.1-.3.2-.6l.6-.5h.4l.3-.5c.5-.3.8-.7 1.1-1l.3-.1c.3-.1.7-.5 1-1 .9-.3 1-.4 1.4-.8.1 0 .3 0 .6-.1 0-.1 0-.1.1-.2.5-.1.7-.2.6-.2h.1c.1-.3.4-.5.8-.5 0 .1.1.1.3.1.3-.1.6-.4.9-.7h.5l.5.4c.5-.1.4.3.8.3l.1-.1H44c.2.2.5.3.8.3l.3.3c.5 0 .8.3 1 .8.4.2.7.5.9 1l.3.2.4.2c.1.1.2.3.2.7.3.3.5.6.5.8l.4.5v.5c.1.2.3.5.6.8 0 .3.1.5.3.6 0 .1 0 .2.1.3V25c-.1 0-.1.1-.1.2h.1v.7l-.3.5c.1.1.1.2.1.3-.2.1-.3.4-.3.7-.4.1-.6.4-.6.8l-1.5 1.5c-.3.3-.5.5-.8.6v.5c-.3.1-.5.3-.6.5h-.2c0 .2-.1.3-.2.4-.1.3-.2.5-.3.4l-.1.1-.8.6v.2c-.5.2-.7.5-.7.8-.5.3-1.1.7-1.8 1.4-.1 0-.3 0-.6.1 0 .3-.1.4-.4.3h-.4c0 .1 0 .1-.1.1l-.6.2c-.3 0-.5.1-.6.1-.3-.1-.5-.2-.6-.2-.1 0-.2 0-.2.1s0 .1.1.1v2.5c.1.1.2.2.2.5.1 0 .1.1 0 .4.1.1.2.4.2.7-.1.1-.2.3-.2.4 0 .2.1.4.2.5.1.4.1.7.1 1l.3.2c.3.1.5.2.5.3-.1 0-.2 0-.3.1 0 .3.2.5.5.6 0 .1 0 .1.1.2.7.1 1 .1.8.2v-.2c.2 0 .3.1.4.2l.2-.3c.5 0 .8-.1.9-.2h.3l.4-.2c.1-.1.2-.1.2-.2.3-.1.7-.5 1-1l.6-.6c.1-.1.2-.1.4-.1 0 .2.2 0 .6-.6l.4-.5c.1-.1.5-.4.6-.7-.1 0 0-.3.5-.9l.4-.8.4-.4v-.5c.2-.1.3-.1.3-.2 0-.5.2-1.1.6-1.8l-.1-.2h-.2V34h.3c0-.1.1-.3.2-.6.1-.1.2-.1.3-.1v-.2c.3-.1.4-.1.5-.1v-.2h.4c0-.1-.1-.2-.2-.3v-.4c.7-.1 1.2.1 1.5.5 0 .1.1.1.2.2l-.7 1.1zm-19.2-8.3v.3c0 .1 0 .1-.1.1v.1c.1 0 .1 0 .1.1v-.6zm.4 14.4c0 .1 0 .1 0 0v.4c.1-.1.1-.2 0-.4zm0-3.1l.2.1c.1.2.1.4.1.5.1-.1.1-.1.2-.1-.1-.1-.1-.1-.1-.2.2-.1.3-.2.3-.3h-.7zm.6-14.6zm.1 17.5c.1-.2.1-.4 0-.7h-.2c0 .1 0 .2.1.3-.1.1-.1.2-.1.4h.2zm0-12.9c-.1.3-.2.4-.1.5.1 0 .2 0 .3-.1.1-.3 0-.4-.2-.4zm1 3.3V30h-.4c0-.1 0-.1-.1-.2-.3-.1-.4-.2-.5-.3-.1.7 0 1.1.3 1.3.2-.2.3-.4.3-.6h.4zM33 40c0 .2 0 .3.1.2L33 40zm.7 2.9c0-.1 0-.2-.1-.3h-.2v.1c0 .1 0 .1.1.2h.2zm0-19.5c.1.1.1.1.1.2 0-.1 0-.1.1-.2h-.2zM35 44.8v-.2h-.1l.1.2zm2-17.4h-.2c0 .1.1.3.2.4l-.4.3-.1.2c.1.1.1.1.2.1v.3c-.1 0-.2 0-.2.1-.1.5-.1.8-.1 1.1h-.1c0 .1.1.3.2.5h.2c-.1-.1-.1-.2-.1-.3.1-.3.1-.6.2-.7h.1c0-.9.1-1.5.3-1.7l-.2-.3zm-.7 3.2v.6c.2-.1.2-.3 0-.6zm1.6-12.3c-.1 0-.2 0-.3.1v.3h.1c.1-.1.1-.1.2-.1v-.3zm0 17.7zm0 2.6v-.5h-.1l.1.5zm.3 1.5H38h.2zm.4-20.7c-.1 0-.2.1-.3.2v.2c.2 0 .3 0 .4-.1-.1-.1-.1-.2-.1-.3zm-.3 8.8c.1.1.1.1.2 0h-.2zm6.7-2.3v-1.4c-.1-.1-.2-.1-.3-.1l.3-.2c0 .1-.2-.6-.6-2.2l-.6-1.4h-.1c-.1-.3-.1-.4-.1-.5-.5-.2-.9-.4-1.1-.6-.6.1-.9.3-.9.6-.2.1-.4.1-.5.1 0 .3-.1.4-.3.4-.1.2-.1.4-.1.5l-.3 1.3c-.2.6-.4 1.1-.5 1.6-.1.3 0 .4.1.5l-.1.1c-.1.3-.1.5-.2.5-.1.5-.3.8-.4.8 0 .3.2.5.2.6-.1.1-.1.1-.2.1v.8l-.2.5c-.1.8-.2 1.7-.4 2.7v1c-.1.1-.1.3-.2.6s0 .5.1.6c0 .1 0 .2-.1.4v.2c.3-.1.6-.2.8-.5.1-.1.3-.1.5-.1v-.1h.3c.1-.3.4-.5.7-.6.1-.3.4-.5.9-.5v-.2l.6-.3c1.2-.3 1.6-.4 1.2-.4.2-.4.4-.6.5-.7v-.2h-.2c.1-.4.3-.6.4-.6 0 .3 0 .2-.1-.3l.3-.2c.1-.5.1-.7.2-.8-.1-.1-.1-.2-.1-.4h.1c0-.5 0-.8.1-.8.1-.1.1-.2 0-.3.1-.1.1-.1.2-.1v-.4h.1zm-5.4-7c-.3.1-.4.2-.5.4l-.3.1c-.1.4 0 .7.2.8.1-.1.2-.1.3-.1v-.5c.1-.1.2-.1.3-.1.1-.4.2-.7.2-.8-.1 0-.1.1-.2.2zm-.7 8.1zm.7 15.7zm.9-25.4zM41.7 32c-.1.1-.1.1-.1.2h-.3c0 .3-.2.5-.5.6-.1.1-.1.2-.1.4.3-.1.4-.3.4-.4.3-.1.6-.2.8-.5-.1-.1-.2-.2-.2-.3zm.1-14.6zm0 18.2zm1.1-.5h-.2.2zm0 12.8zm.4-16.7c-.1-.1-.2-.1-.3-.1-.1.1-.1.2-.1.4.1-.1.2-.1.4-.1v-.2zm5.1 9.4v-.4h-.2L47 41.4c.2.2 0 .5-.5.8.1.1.1.2.1.3l-.3.2c0 .1 0 .2.1.3-.3.5-.7.7-1.1.7l-.2.3-.7.2c-.3.2-.7.5-1.2 1H43c-.1.1 0 .2.1.3.1 0 .3-.1.7-.2l.4-.1c.1-.3.2-.4.3-.5l.3-.3c.6-.1 1 0 1.1.3l.2-.3.2-.2c.3-.3.4-.6.4-.9h.1c.3-1.1.7-1.9 1.4-2.4 0-.1 0-.2.1-.3h.1zm-4.1 6.6c0-.3-.1-.7-.2-1.1h-.2l-.1.1c.1.5.1.8.1 1h.4zm.3-23.3h-.3v-.1l.3.1zm-.2 2.9zM45.7 47c-.2-.1-.3-.1-.4 0v.2h.3l.1-.2zm.6-.2h-.2.2zm1.1-18.1c0-.1 0-.1 0 0h-.2.2zm.1 10.3c-.1-.1-.1-.1-.2-.1v.1h.2zm0-10.8c-.1.1-.1.1 0 .2v-.2zm.6-7c-.2.2-.3.3-.3.4l-.1.1c.1 0 .3 0 .4-.1v-.4zm0 6.7zm0 9.9v-.2H48l.1.2zm.4 1.5c-.1.1-.2.3-.2.6.2 0 .4-.2.5-.5-.1-.1-.2-.1-.3-.1zm0-17c.1.1.1.1 0 0zm.4 14.2c.1-.2.1-.3 0-.4v.4zm.4-13.6l-.1.2.1-.2zm0 .9zm0 11.3l-.1.2.1-.2zm.5-2.3zm.5 4.2v-.2h-.2c0 .1 0 .1.2.2zm0-3.7c0 .1 0 .1 0 0zm.3 1.9c-.1.1-.1.3 0 .5v-.5zm.4-2h.2-.2zm39.9.4l-.1.9c-.3.1-.4.4-.5.9h-.1l-.2.3c-.1.1-.1.5-.2 1.2-.1.1-.3.4-.4.7v.5c-.4.3-.6.7-.6 1.2-.3.3-.5.5-.5.8H88l-.1-.1c-.1.1-.1.1-.2.1 0 .9-1 1.4-.7 1.9-.1.1-.1.3-.1.4h-.2c0-.1 0-.2-.1-.2 0 .1 0 .2-.1.3.1.1.1.3 0 .6s-.3.5-.4.6c-.1.1-.2.4-.3.7-.3 0-.4.1-.5.4-.4.1-.8.4-1.3.9-.5.3-1.2.7-1.5.8l-.7.2c0 .2-.1.3-.2.4-.3 0-.5.1-.6.3l-.7.2-1.1-.2h-.1c-.1 0-.2 0-.3.1-.1 0-.1 0-.1-.1-.3 0-.7 0-1-.1v-.1h-.3c-.1-.2-.2-.4-.5-.6l.1-.8c-.3-.2-.5-.4-.6-.7-.5 0-.5-1.1-.6-1.2v-.2h-.3c0 .2-.2.5-.6.9h-.2c-.1.1-.2.4-.5.7v.2c-.1.1-.1.2-.1.4-.3.1-.5.4-.5.8.4 0 0 .2-1.2.6l-.9.4h-.4c-.2.1-.6.2-1.3.2l-.1-.1c-.2.1-.6.1-1.3.1-.1-.1-.6-.3-.9-.6-.3.1-.5 0-.8-.2-.3 0-.4-.2-.5-.5.1 0-.3-.3-1.4-.9v-.5l-.5-.6H64v-.4c-.3 0-.6-.2-1-.5v-.3l.2-.1c0-.4-.1-.9-.4-1.5 0-.2 0-.3.1-.4l.1-.3c-.1 0-.2 0-.3-.1v-.4c.1-.1 0-.3-.1-.6 0-.1 0-.3.1-.5.1 0 .1-.1.1-.2s0-.3-.1-.5v-.7c0-.2 0-.6-.1-1.2 0-.3.1-.8.4-1.3.1-.4.1-1 .2-1.7l.1-.1c-.1-.1-.1-.3 0-.6h-.1l.4-1.4c0-.1 0-.5.1-1.1 0-.2.2-.6.5-1.2 0-.2.2-.5.5-.9v-.7l.5-.5c.2-.2.4-.6.6-1.1.1-.1.2-.4.3-1.1.3-.1.5-.4.5-.8h.3v-.2c0-.2.2-.4.5-.7 0-.1.2-.3.5-.4 0-.1.1-.3.3-.5-.2.2-.2.1-.2 0 .1-.1.2-.1.3-.1h.1c.3-.1.4-.3.5-.7.1 0 .1 0 .2.1.1-.3.3-.6.8-1l1.1-1c.1-.2.3-.4.7-.6l1.5-.5c.1 0 .3.1.5.3.5-.1.8 0 .9.1l.2-.2c.2 0 .4.1.5.3l.4-.1.3.3c.5 0 .8.3 1.1.8.1 0 .3 0 .4.1l.2-.2c0-.1 0-.1-.1-.1.1-.1.3-.2.5-.1.1-.3.1-.6.1-.9l.1-.1c-.1-.1-.1-.2-.1-.3l2.3-.7.9-.2c.3-.1.6-.2 1-.2 0-.2.5-.4 1.5-.5.1-.1.2-.1.5 0 .1-.1.4-.1.9-.2v-.1h.9v.2c.1 0 .2 0 .4.1v1.2h-.2c0 .3-.4.8-.4.9-.3.5-.6 1.3-1 2.6-.2.2-.3.4-.3.5 0 .1 0 .2.1.3-.1.1-.2.2-.3.2 0 .3 0 .8-.1 1.3-.1.1-.1.4-.1.8-.5.1-.2.7-.5 1v.6h.2c.1.1.2.4.3.7l-.3.8c-.2 0-.3.2-.3.6 0 .2 0 .4.1.5l-.4.7.1.2c-.1.1-.2.4-.3.9v.6c.1.2-.1.6-.4 1.2v.8l-.3.5c.1.1.1.1.1.2l-.1.1c.1 0 .1.1.2.2v.2c-.1.1-.2.6-.4 1.7-.2.6-.3 1.2-.3 1.7-.1.3-.1.5-.1.6 0 .3.1.4.3.5 0 .2.2.3.5.4v.1c-.3.1-.5.8-.5 2.3l.1.1.5-.5c0-.1.1-.2.3-.3V41l.4-.3.2-.3.5-.6c.1-.2.1-.4.1-.5h.2c.1-.2.3-.3.6-.4 0 .3.2-.1.6-1.1v-.1c.1.1.1.1.2.1l.3-.7c.1-.1.1-.1.2-.1 0-.3.1-.7.2-1.2 0-.8 0-1.4.1-1.8l.1-.1c-.2-.2-.3-.6-.3-1.1.1 0 .4-.1.7-.4l.4-.4h.4c.1-.1.5-.2 1.4-.2.3-.1-.1-1.3.6-1.3.1.3.2.5.2.8-.2.2-.2.3-.2.5.1.1.3.1.6.2h.2c.1.1.3.2.5.2v.3h-.1v.2h.1c0 .1 0 .3.1.5l-.5.4zm-26.2 6.7c0-.1 0-.1-.1-.2l.1.2zm0 3.8c-.1 0-.1 0 0 0zM66.3 28v-.2h-.2v.2h.2zm1.2-3.4zm1 13.2c.1.1.2.1.2 0h-.2zM78 25.2c0-.3-.2-.5-.5-.5-.2-.1-.3-.1-.3 0H77v-.2c-.5-.3-.7-.5-.7-.6-.2-.3-.4-.4-.6-.4v-.3h.1l-.4-.6c-.3 0-.7-.2-.8-.2v-.3H74c-.2.1-.3.3-.4.4 0 .4 0 .6-.1.7h-.2c-.2.1-.3.3-.3.7h-.2l-.3.6c-.1 0-.2 0-.3.1v.2c.1 0 .3 0 .5.1 0 .3-.1.6-.2.7-.6.1-.9.3-.9.8 0 .1 0 .1.1.1l-.5.9c-.1.5-.2.8-.3.9l-.1.7c-.1.1-.1.4-.1.8l-.3.2.1.1c-.1.1-.1.1-.2.1.1.1.1.2.1.3-.1.1-.1.1-.2.1-.1.5-.2.7-.3.7v.1h.1v.3l-.4.9v.4h-.2c0 .3-.1.4-.2.4.3.5.5.7.5.8-.1.1-.1.1-.1.2-.3.2-.4.6-.3 1.2 0 .3 0 .5.1.7v.1l-.1.1v.8c-.1.3-.2.5-.2.6h-.3v.2h.3v.3h-.3c-.1.1-.1.3 0 .5h.2v.2h-.1c-.1.2 0 .4.1.5-.1.2-.2.6-.1 1.1h.1v-.1c.1 0 .2.2.3.7-.1.1-.1.1-.1.2.1 0 .4.7.5.7 0 .1 0 .2-.1.3h.1l.2.3c0 .1 0 .1.1.2l.2.2c.3.5.8.8 1.6.8.4-.1.7-.2.9-.2.6-.1.9-.3 1-.6.1 0 .2-.1.3-.2l-.1-.1c.1-.3.3-.6.6-.7-.1-.1-.1-.1-.1-.2s.1-.3.3-.4v-.4c.3-.3.5-.7.8-1.2-.1-.1-.2-.2-.2-.3.1-.1.2-.2.4-.2.1-.3.3-.7.6-1h.2c-.1-.3-.1-.6.1-.7v-1c-.1-.1-.1-.3 0-.5-.1.1-.3.1-.5.1v-.1h-.4c0-.1 0-.1-.1-.2 0-.6.2-1.4.5-2.4-.1-.3-.1-.4-.1-.5 0-.3 0-.9.1-1.6.1-.1.1-.3 0-.6.2-.3.3-.5.3-.6-.1-.7 0-1.1.2-1.2v-.9l.3-.2c-.1-.1-.1-.2 0-.3 0-.3.2-1.1.2-1.4-.2 0 .1-.3.8-.8v-.3h-.1v.2h-.1c-.1-.3-.1-.5-.1-.6h.4zm-8.3 9.7c0 .1 0 .1-.1.2l.1-.2zm.3-9.5c-.2.2-.2.4-.1.5h.1c.1-.1.1-.3.2-.5H70zm.9 2.2v-.2h-.1l.1.2zm.9 18.3v-.3c-.3 0-.6 0-.9.1.1.2.1.3.1.4l.8-.2zm.3 1.1zm.9-4.1zm.3-23.5c-.1 0-.1 0 0 0l-.1.3c0-.1 0-.1.1-.1v-.2zm1.1 5.5c-.1 0-.1 0 0 0zm0 15.4zm.5-18.3c-.1-.1-.1-.1-.2 0h.2zm-.1 20.7c-.1-.1-.1-.1 0 0zm.5-20.3v-.2h-.1l.1.2zm0 21zm.8-23.4v-.2H76l.1.2zm.7 3.7zm.1 5c0-.1 0-.1-.1-.2h-.1v.2h.2zm.4 17.7h-.2.2zm1.1-25c0-.2-.1-.3-.2-.4h-.4l.6.4zm-.3 12c-.1.3-.1.5 0 .7.3-.1.3-.3.2-.6-.1-.1-.1-.1-.2-.1zm.2-11.3v-.3c-.1.2-.1.2 0 .3zm.7 5.1zm.3-.2v-.2c-.1.1-.1.1-.2.1v.1h.2zm.7 15.5c-.1-.3-.1-.5-.2-.6l-.3-.2c-.1.1-.1.1-.2.1.1.9.1 1.5.2 1.6v.1c.2 0 .3-.3.5-1h.2-.2zm-.2 1.5c-.1-.1-.2-.3-.4-.4h-.1c0 .5 0 .8.1.9.1 0 .3 0 .4-.1V44zm.3-16.8l-.4-.2-.1.3h.1v.6c.1 0 .3 0 .4-.1v-.6zm0 1.2c-.3.1-.4.3-.4.5l.4-.5zM80 41.7v-.3h-.1l.1.3zm.6-20.1c-.1-.1-.3-.1-.4-.1-.1.2-.1.3 0 .4l.4-.3zm0 8.4c-.1.1-.1.2-.1.3.1 0 .2 0 .2-.1s0-.1-.1-.2zm.5 5.3c0-.1 0-.1-.1-.2h-.2c-.1 0 0 .1.3.2zm.2-3l-.4.2v.2c.2-.1.3-.1.4-.1v-.3zm0 .7v-.3c-.1 0-.2.1-.4.3v.3l.4-.3zm-.1-1.6v.2c.1-.1.1-.1.2-.1-.1-.1-.1-.1-.2-.1zm.6-3.5c-.2-.1-.3 0-.4.2.1.1.1.1.2.1l-.2.4v1l.2.2c.1-.1.1-.1.2-.1 0-.3 0-.5-.1-.6.1-.3.2-.6.2-.7s0-.3-.1-.5zm-.3 2.1c-.1.1-.1.3 0 .5h.1c.1-.1.1-.2.1-.5h-.2zm.3-2.5zm.6 18.6zm.5-16.4c-.1 0-.1 0 0 0l-.1.2c.1-.1.1-.1.1-.2zm-.1.2c.1.1.1.1 0 0zm.3 15.5zm1.1-.2c-.1-.1-.2-.1-.3 0h.3zm0-26.9zm.6.6c-.3.1-.5.2-.5.3.2-.1.4-.1.5-.1v-.2zM85 22c0 .1 0 .2-.1.2l.1-.2zm.4-.9h-.2V21l.2.1zm3 11.2c-.1.1-.1.1 0 0z"/><path class="st142" d="M111.3 24.8c-.1 0-.4.1-.7.2.2.3.1.7-.3 1.3h-.2c0 .1 0 .4-.1.7l-.2.2-1.3 2.1c0 .2-.2.4-.5.5v.2l-.9.7c-.1 0-.2 0-.3.1v.1h-.7v-.1c-.2 0-.3 0-.4.1-.1-.1-.4-.1-.9-.2-.1 0-.3 0-.5-.1 0-.5-.1-.8-.2-.9v.1h-.1v-.5c-.1-.3-.2-.6-.5-1l-.1-.3c-.1-.3-.1-.9-.1-1.6-.1 0-.2 0-.3-.1V26c.1-.1.1-.1.2-.1l.3-2 .3-.3.2-.6c.1-.1.2-.1.3-.1-.1-.1 0-.3.2-.5V22c.2-.1.3-.2.4-.4l.5-.5v-.4h.1l.1.1v-.4c-.1-.1-.1-.1-.2-.1v-.1c.1.1.1.1.2.1l.6-.7c-.1-.1-.3-.1-.5-.1l-.1.1h-.2v.1c-.5 0-.9.2-1 .7h.3c-.1.1-.1.3-.2.5-.2 0-.3 0-.4-.1-.1.1-.1.1-.2.1-.1-.1-.3-.1-.4 0-.1.3-.4.6-.9 1-.1.2-.3.3-.6.4 0 .2-.1.4-.2.7 0 .1 0 .1.1.2-.3.1-.4.3-.5.6-.3.1-.4.3-.5.6-.1 0-.3.2-.5.6v.3h-.3c0 .5-.2.7-.5.7 0 .1.1.3.4.6v.4l-.2.4h-.2c-.1.3-.2.5-.5.6v.4l-.3.3c0 .7 0 .9-.1.7h-.2v1.1h-.3c-.1.1-.1.3 0 .4-.3.7-.5 1.3-.5 1.9.1 0 .1 0 .2.1v.1c-.1.1-.2.4-.4.9 0 .1 0 .3.1.6-.1 0-.1 0-.1.1v.4h-.3l-.3 2.2h-.2c.1.1.1.2 0 .3.1.1.1.3.1.4-.1.1-.2.4-.1.8.1-.1.2-.1.3-.1v.2c-.1.1-.2.1-.3.1 0 .6-.1 1.2-.2 1.9v.6h-.3c-.1.1 0 .2.1.3v1l-.3.9v1.3c.1.1.1.3.2.6l-.3.3c0 .4 0 .6-.1.7 0 .3 0 .4-.1.4h-.2l-.3.6-.1.1c-.4 0-.6.3-2.1.7-.1.3-.3.3-.7.2-.1 0-.1 0-.2.1h-1c-.2 0-.4 0-.6-.1-.7 0-1.2-.3-1.3-.9H89c0-.1.1-.3.2-.6.3-.1.4-.3.5-.8l.4-.5c0-.7 0-1.1.1-1.4 0-.1.1-.1.3-.1 0-.6 0-.9.1-.9 0-.3.2-.5.5-.6.1-.2.1-.3.1-.4h.1c.1-.5.1-.8.1-1l.1-.1c-.1-.1-.1-.2 0-.3l.1-2.9h.1v.1h.1c.1-.1.1-.2 0-.3h-.2c-.1-.1-.1-.3 0-.4l.2-.4v-.4c-.1-.1-.2-.3-.2-.4h.2c.3-.3.4-.7.3-1.3-.1-.8-.1-1.3 0-1.5-.1-.1 0-.2.1-.3v-.4c0-.4.2-.9.5-1.4-.1-.1-.2-.1-.2-.2l.3-.3v-.3h-.2c.1-.1.1-.1.2-.1v-.2l-.2-.3.3-.1c0-1 .1-1.5.2-1.6V28c.1-.1.2-.3.2-.6v-.7c.1-.1.1-.3.2-.6-.1-.2-.1-.3.2-.4 0-.1 0-.1.1-.2l-.3-.2c-.3.1-.4.2-.5.2l-.1.4h-.3l-.6.5-.2.2h-.2c-.3.3-.5.4-.6.4l-.4.9c-.1 0-.3.1-.5.4H90c0 .2 0 .3-.1.4h-.3v.3h-.1c0 .1-.1.3-.4.6 0 .4-.2 1.1-.2 1.5-.2.1-.3.5-.3 1.4-.1.5-.3.7-.6.6v-.2h-.3c0 .1-.1.1-.3.1-.2-.2-.4-.3-.7-.4 0-.1 0-.2.1-.4h-.1v-.4h.1v-.4c.1 0 .2 0 .3-.1.1-.3.1-.5.2-.5 0-.5 0-.8.1-.9-.1-.1-.1-.3 0-.5h.2c.1-.4.1-.6.2-.6.1-.6.1-.8.2-.6.1-.3.2-.6.5-1 0-.3.2-.9.2-1l.7-1.6c.1-.2 0-.4-.2-.5l1-1.7c0-.1 0-.4.1-.7.3-.4.6-.9.9-1.5.3-.1.4-.3.5-.6.1.1.2.1.3.1.7-.7 1-.9 1-.8l.4-.3c.2-.4.4-.6.6-.6v-.1h.6v.1h.2c.1-.1.1-.1.1-.2.3 0 .5 0 .6-.1l.5.3c0-.1 0-.1.1-.2.3 0 .6.2.9.6l.4.1.4.4c0 .7.1 1.1.4 1.3.1.1.1.3.1.6-.1.3-.1.4 0 .5 0 .6 0 .9-.1 1 .1.1.1.6 0 1.3 0-.1-.1-.1-.2-.1v.3s.5-.7 1.4-2.1c.1 0 .2 0 .4-.1 0-.3 0-.5.1-.6h.2c0-.1 0-.3.1-.4.3 0 .6-.3.7-.8.2-.1.4-.2.7-.5.3-.5.7-.9 1.4-1 .6-.4.9-.7.9-1 0-.1.1-.2.3-.4h.4c.1-.2.2-.3.4-.3v.1c-.2 0 0-.1.6-.2 0-.1.1-.3.4-.4.1-.1.3 0 .6.1.6.1.8.1.7.1.1-.1.2-.2.5-.1.2.1.4.3.7.6.1.1.1.2.1.3h.2l.2.4h.1v.1c.1 0 .1 0 .2.1l.2.2h.1l.4.7h.3c.1.1.1.4.2.9l.4.4c0 .6 0 1 .1 1.1-.1.1-.2.2-.2.4.3-.1.5-.1.6 0l.3.3-.2.2c.2.1.3.9.3 2.4l-.5.5zm-22.9 1.6c-.1 0-.1 0-.2.1v-.2l.2.1zm.3 4.3v-.2h-.3c0 .1 0 .1.1.2h.2zm.4-4.5v.2c.1-.1.1-.1 0-.2zm.7-1.7v.3c.1-.1.1-.2 0-.3zm.8.7l-.3-.1c.1.2 0 .4-.2.5 0 .1 0 .1.1.2h.4c.1-.1.1-.2.2-.2-.1-.2-.2-.3-.2-.4zm.3-.3l-.3-.4c0 .1 0 .3.1.4h.2zm0-3.1v-.2.2zm.3.1H91c0 .1 0 .1.2 0zm.6 26.1c-.1.1-.1.1 0 0zm.2-27.5v-.2h-.1l.1.2zm.2 19.7V40h-.1l.1.2zm.1-6.3c0 .1 0 .1 0 0zm.7-.4l-.1-.2c-.1 0-.1 0-.2.1.1.3 0 .4-.3.5v.1c.2-.1.4-.1.5-.1l.1-.4zm-.5 1.8c-.1.1-.1.2 0 .3v-.3zm.3-2.3c-.1-.1-.1-.1-.2-.1v.1h.2zm1.1 11.4c0-.2-.2-.3-.5-.2-.5 0-.4.7-.8.8 0 .3.1.5.3.7-.1.2 0 .6.1 1.1.1-.1.3-.1.4-.1v-.3c0-.5.1-.7.3-.8.1-.4 0-.7-.1-.8v-.2l.3-.2zm-1.1 3.5c-.1-.1-.1-.1-.2 0v.1l.2-.1zm.7-19.5v.2h.2c0-.1.1-.3.2-.4-.1 0-.2.1-.4.2zm.5 11.8v.3c.1 0 .1 0 .1-.1s0-.2-.1-.2zm.5.6v-.2h-.2l.2.2zm.1-.5c0 .1 0 .1.1.2-.1-.1-.1-.1-.1-.2zm1.5 1.7c-.1-.1-.1-.1 0 0zm.8-4.1zm.9-15.9c.1.1.1.1.2 0h-.2zm.2 8.3v-.2h-.1l.1.2-.2-.1v.1h.2zm9-2.2c-.1 0-.3 0-.5.1v.5c-.2.2-.2.3-.1.4v.3h.3c.1-.3.3-.5.5-.6 0-.3.1-.4.3-.4-.1-.2-.3-.3-.5-.3zm.1-11.1zm.1 13.2c0-.1 0-.1-.1-.2l.1.2z"/><path class="st142" d="M130.5 33.9l-.1 1.1-.1.1c-.1.1-.2.7-.2 1.6-.1.1-.1.5-.2 1.1-.1.1-.1.2-.1.3h.1c0 .1 0 .1.1.2l-.3.1.2.4-.3.9v.5c-.1.2-.2.4-.5.6v.7c-.3.3-.6.9-1.1 1.8 0 .1-.1.1-.2.2 0 .3-.2.8-.6 1.5v.4l-.3.2v.2l-.7.6v.2c-.2.1-.3.3-.4.6-.7.3-.7.2-1.9 1-.2.1-.6.2-1.1.2l-.2.2h-.7c-.2-.1-.5-.1-1 .1-.1 0-.3 0-.6.1-.1-.1-.5-.1-1.1-.2-.1-.1-.5-.2-1-.3-.2 0-.5-.1-.8-.2h-.4c-.1-.1-.3-.2-.7-.3-.1 0-.2 0-.3-.1l-.5-.2c-.3-.1-1-.4-2.6-1.2h-.1c-1.2-.4-1.5-1.7-2-1.7V44c-.1-.1-.2-.3-.5-.5v-.4h-.3c-.1-.2-.1-.4-.1-.6 0-.1 0-.3.1-.5 0-.1-.1-.2-.2-.4 0-.5 0-1.5-.1-3 0-.1-.1-.1-.2-.2v-.2h.1c0-.4-.5-1.6-.5-2.3 0-.7 0-1.1.1-1.4 0-.3 0-.3 0 0-.1 0-.1-.1-.1-.2l.1-.1c0-.6.1-.9.2-1v-.1c-.1-.1-.1-.3-.1-.5s.1-.4.2-.7c-.1-.2-.1-.6 0-1.2.1-.1.2-.5.3-1.2v-1.8h.1l.3-.4c.1-.2.2-.5.1-.9.1-.1.2-.4.2-.9.3-.1.4-.4.3-.7-.1 0-.1-.1-.1-.2.1-.2.1-.6.1-1.2.3-.1.4-.4.4-.9.1-.1.1-.3.2-.6l.6-.5h.4l.3-.5c.5-.3.8-.7 1.1-1l.3-.1c.3-.1.7-.5 1-1 .9-.3 1-.4 1.4-.8.1 0 .3 0 .6-.1 0-.1 0-.1.1-.2.5-.1.7-.2.6-.2h.1c.1-.3.4-.5.8-.5 0 .1.1.1.3.1.3-.1.6-.4.9-.7h.5l.5.4c.5-.1.4.3.8.3l.1-.1h1.5c.2.2.5.3.8.3l.3.3c.5 0 .8.3 1 .8.4.2.7.5.9 1l.3.2.4.2c.1.1.2.3.2.7.3.3.5.6.5.8l.4.5v.5c.1.2.3.5.6.8 0 .3.1.5.3.6 0 .1 0 .2.1.3v1c-.1 0-.1.1-.1.2h.1v.7l-.3.5c.1.1.1.2.1.3-.2.1-.3.4-.3.7-.4.1-.6.4-.6.8l-1.5 1.5c-.3.3-.5.5-.8.6v.5c-.3.1-.5.3-.6.5h-.1c0 .2-.1.3-.2.4-.1.3-.2.5-.3.4l-.1.2-.8.6v.1c-.5.2-.7.5-.7.8-.5.3-1.1.7-1.8 1.4-.1 0-.3 0-.6.1 0 .3-.1.4-.4.3h-.4c0 .1 0 .1-.1.1l-.6.2c-.4.1-.6.2-.7.2-.3-.1-.5-.2-.6-.2-.1 0-.2 0-.2.1s0 .1.1.1v2.5c.1.1.2.2.2.5.1 0 .1.1 0 .4.1.1.2.4.2.7-.1.1-.2.3-.2.4 0 .2.1.4.2.5.1.4.1.7.1 1l.3.2c.3.1.5.2.5.3-.1 0-.2 0-.3.1 0 .3.2.5.5.6 0 .1 0 .1.1.2.7.1 1 .1.8.2v-.2c.2 0 .3.1.4.2l.2-.3c.5 0 .8-.1.9-.2h.3l.4-.2c.1-.1.2-.1.2-.2.3-.1.7-.5 1-1l.6-.8c.1-.1.2-.1.4-.1 0 .2.2 0 .6-.6l.4-.5c.1-.1.5-.4.6-.7-.1 0 0-.3.5-.9l.4-.8.4-.4v-.5c.2-.1.3-.1.3-.2 0-.5.2-1.1.6-1.8l-.1-.2h-.2v-.4h.3c0-.1.1-.3.2-.6.1-.1.2-.1.3-.1V33c.3-.1.4-.1.5-.1v-.2h.4c0-.1-.1-.2-.2-.3V32c.7-.1 1.2.1 1.5.5 0 .1.1.1.2.2l-.6 1.2zm-19.2-8.3v.3c0 .1 0 .1-.1.1v.1c.1 0 .1 0 .1.1v-.6zm.4 14.4c0 .1 0 .1 0 0v.4c.1-.1.1-.2 0-.4zm0-3.1l.2.1c.1.2.1.4.1.5.1-.1.1-.1.2-.1-.1-.1-.1-.1-.1-.2.2-.1.3-.2.3-.3h-.7zm.6-14.6zm.1 17.5c.1-.2.1-.4 0-.7h-.2c0 .1 0 .2.1.3-.1.1-.1.2-.1.4h.2zm0-12.9c-.1.3-.2.4-.1.5.1 0 .2 0 .3-.1.1-.3 0-.4-.2-.4zm1 3.3V30h-.4c0-.1 0-.1-.1-.2-.3-.1-.4-.2-.5-.3-.1.7 0 1.1.3 1.3.2-.2.3-.4.3-.6h.4zm-1 9.8c0 .2 0 .3.1.2l-.1-.2zm.7 2.9c0-.1 0-.2-.1-.3h-.2v.1c0 .1 0 .1.1.2h.2zm0-19.5c.1.1.1.1.1.2 0-.1 0-.1.1-.2h-.2zm1.4 21.4v-.2h-.1l.1.2zm1.9-17.4h-.2c0 .1.1.3.2.4l-.4.3-.1.2c.1.1.1.1.2.1v.3c-.1 0-.2 0-.2.1-.1.5-.1.8-.1 1.1h-.1c0 .1.1.3.2.5h.2c-.1-.1-.1-.2-.1-.3.1-.3.1-.6.2-.7h.1c0-.9.1-1.5.3-1.7l-.2-.3zm-.6 3.2v.6c.2-.1.2-.3 0-.6zm1.5-12.3c-.1 0-.2 0-.3.1v.3h.1c.1-.1.1-.1.2-.1v-.3zm0 17.7zm0 2.6v-.5h-.1l.1.5zm.3 1.5h-.2.2zm.4-20.7c-.1 0-.2.1-.3.2v.2c.2 0 .3 0 .4-.1-.1-.1-.1-.2-.1-.3zm-.3 8.8c.1.1.1.1.2 0h-.2zm6.7-2.3v-1.4c-.1-.1-.2-.1-.3-.1l.3-.2c0 .1-.2-.6-.6-2.2l-.6-1.4h-.1c-.1-.3-.1-.4-.1-.5-.5-.2-.9-.4-1.1-.6-.6.1-.9.3-.9.6-.2.1-.4.1-.5.1 0 .3-.1.4-.3.4-.1.2-.1.4-.1.5l-.3 1.3c-.3.6-.5 1.1-.6 1.6-.1.3 0 .4.1.5l-.1.1c-.1.3-.1.5-.2.5-.1.5-.3.8-.4.8 0 .3.2.5.2.6-.1.1-.1.1-.2.1v.8l-.2.5c-.1.8-.2 1.7-.4 2.7v1c-.1.1-.1.3-.2.6s0 .5.1.6c0 .1 0 .2-.1.4v.2c.3-.1.6-.2.8-.5.1-.1.3-.1.5-.1v-.1h.3c.1-.3.4-.5.7-.6.1-.3.4-.5.9-.5v-.2l.6-.3c1.2-.3 1.6-.4 1.2-.4.2-.4.4-.6.5-.7v-.2h-.2c.1-.4.3-.6.4-.6 0 .3 0 .2-.1-.3l.3-.2c.1-.5.1-.7.2-.8-.1-.1-.1-.2-.1-.4h.1c0-.5 0-.8.1-.8.1-.1.1-.2 0-.3.1-.1.1-.1.2-.1v-.4h.2zm-5.4-7c-.3.1-.4.2-.5.4l-.3.1c-.1.4 0 .7.2.8.1-.1.2-.1.3-.1v-.5c.1-.1.2-.1.3-.1.1-.4.2-.7.2-.8-.1 0-.1.1-.2.2zm-.7 8.1zm.7 15.7zm.9-25.4zm1.3 14.7c-.1.1-.1.1-.1.2h-.3c0 .3-.2.5-.5.6-.1.1-.1.2-.1.4.3-.1.4-.3.4-.4.3-.1.6-.2.8-.5-.1-.1-.2-.2-.2-.3zm.1-14.6zm0 18.2zm1.1-.5h-.2.2zm0 12.8zm.3-16.7c-.1-.1-.2-.1-.3-.1-.1.1-.1.2-.1.4.1-.1.2-.1.4-.1v-.2zm5.2 9.4v-.4h-.2l-1.2 1.2c.2.2 0 .5-.5.8.1.1.1.2.1.3l-.3.2c0 .1 0 .2.1.3-.3.5-.7.7-1.1.7l-.2.3-.7.2c-.3.2-.7.5-1.2 1h-.3c-.1.1 0 .2.1.3.1 0 .3-.1.7-.2l.4-.1c.1-.3.2-.4.3-.5l.3-.3c.6-.1 1 0 1.1.3l.2-.3.2-.2c.3-.3.4-.6.4-.9h.1c.3-1.1.7-1.9 1.4-2.4 0-.1 0-.2.1-.3h.2zm-4.2 6.6c0-.3-.1-.7-.2-1.1h-.2l-.1.1c.1.5.1.8.1 1h.4zm.3-23.3h-.3v-.1l.3.1zm-.2 2.9zm1.3 20.2c-.2-.1-.3-.1-.4 0v.2h.3l.1-.2zm.6-.2h-.2.2zm1.2-18.1c0-.1 0-.1 0 0h-.2.2zM127 39c-.1-.1-.1-.1-.2-.1v.1h.2zm0-10.8c-.1.1-.1.1 0 .2v-.2zm.6-7c-.2.2-.3.3-.3.4l-.1.1c.1 0 .3 0 .4-.1v-.4zm0 6.7zm0 9.9v-.2h-.1l.1.2zm.4 1.5c-.1.1-.2.3-.2.6.2 0 .4-.2.5-.5-.1-.1-.2-.1-.3-.1zm0-17c.1.1.1.1 0 0zm.4 14.2c.1-.2.1-.3 0-.4v.4zm.3-13.6l-.1.2.1-.2zm0 .9zm0 11.3l-.1.2.1-.2zm.5-2.3zm.5 4.2v-.2h-.2c0 .1 0 .1.2.2zm0-3.7c0 .1 0 .1 0 0zm.3 1.9c-.1.1-.1.3 0 .5v-.5zm.4-2h.2-.2zm39.6.9v.6c-.2.1-.3.3-.3.8-.2.2-.3.5-.2 1-.2.1-.3.4-.3.9h-.3c0 .1-.1.2-.2.4v.4l-.6.7h-.2c-.1.1-.1.3-.1.6-.3 0-.9 1.2-1 1.3v.6c-.3.1-.5.5-.6 1.1-.1.1-.3.6-.5 1.3-.5.3-.8.4-.8.4v.7c-.1 0-.1.1-.2.3h-.3c0 .2-.1.4-.3.7 0 .1-.2.3-.5.8l-.3.3h-.1c-.3.1-.8.5-1.4 1.2-.2 0-.6.1-1.1.4-.8 0-1.7.5-2 .5l-1.7-.6c-.2 0-.3 0-.4-.1-.1.1-.2.1-.4.1l-1-.5c-.4-.2-.6-.4-.6-.6h-.3v-.6c-.1 0-.1 0-.2-.1v-.6l.2-.4c-.1-.1-.2-.4-.2-1.1.2-.2.3-.3.4-.3-.1-.1-.1-.2 0-.3-.1-.1-.2-.3-.2-.4l.3-.2c0-.1-.1-.2-.3-.3 0-.2.1-.4.3-.5v-.3c-.1 0-.2 0-.3-.1v-.3c.1-.1.2-.1.4-.1.3-.3.4-.8.5-1.3.1-.2.2-.4.5-.7h.3c0-.1 0-.1.1-.2-.1 0-.1-.1-.2-.3-.2 0-.3-.1-.2-.2l.3-.1-.1-.4h.2c0-.1 0-.1.1-.2-.2-.1-.3-.1-.3-.2l-.2-.3v-.4l-.2-.2c.1-.5.1-.8.2-1h.3c0 .1 0 .1.1.2l.3-.2c.1.1.1.3.1.5-.1.1-.3.1-.4.1-.1.3-.1.7.2 1h.3c-.1-.5 0-.9.4-1.4 0-.1 0-.2.1-.3-.1-.2-.1-.5-.1-.9h-.3c-.1-.1-.2-.2-.5-.2v.1c.1.1.2.1.3.1v.1l-.1.1v.7c-.2 0-.3-.2-.4-.6-.1.1-.2.1-.3.1v-.4c.2 0 .3-.2.2-.7-.1 0-.1 0-.1-.1l.2-.2v-.5c-.1 0-.2 0-.3-.1v-.1c.1 0 .1-.1.2-.2h.1c0-.1-.1-.4-.2-.9.1 0 .1 0 .2-.1v-.7c.1 0 .1 0 .2-.1v-1.2h.2c.1 0 .2 0 .3-.1l-.3-.2c-.1.1-.1.1-.2.1 0-.7.1-1.1.3-1.2 0-.5 0-.9.1-1.1h.5v-.2h-.2v.1h-.2c-.1-.3 0-.6.1-.7 0-.5.1-.8.2-.9v-.5l-.3-.2V25l.3-.2v-1.9c-.3 0-.6.1-.7.4l-.6.1v.1c-.5.5-.9.7-1.4.7v.3c-.1 0-.6.2-1.5.7-.1.1-.1.3-.2.6-.3.1-.4.3-.5.7-.3.3-.4.5-.5.7l.1.1-.4.4c0 .1 0 .3.1.5l-.2.3v.4c-.1.1-.2.1-.3.1v.8c.1 0 .1 0 .1.1-.2 0-.3.3-.3.9-.1.1-.2.1-.3.1.1 0 .2 0 .3.1v.7h-.3c-.1.1-.1.3 0 .5l-.3.3c.1.1.2.1.3.1l-.2.7-.3.2v.1h.1c0 .1 0 .1-.1.2 0 1.2-.1 1.8-.4 1.8-.2 0-.3-.1-.4-.3-.1 0-.1.1-.1.2h-.1v.2c.1-.2.3-.1.5.3.1 0 .2 0 .4.1 0 .2-.1.3-.3.4 0-.1 0-.2-.1-.3-.3 0-.5 0-.6.1h-.2v.1c.3 0 .9.2 1 .2v.1c-.1.1-.2.4-.1.8-.1 0-.1.1-.2.2v1.8l-.1.1c.1.1.1.3.1.6v.8c-.1 0-.1.1-.1.3h-.2c0 .1 0 .1.1.2l-.2.2c.3.2.5 1 .4 2.3-.1.7.1 1.2.5 1.3v1c-.1.1-.3.3-.6.8l-.9.9-.8.7c0 .1-.2.3-.5.4l-.4.3c-.1-.1-.3-.1-.6-.1-.1 0-.1 0-.1.1h-.7l-.8-.4c-.1-.1-.2-.1-.3-.1-.6-.6-1.1-.9-1.4-1 0-.1-.1-.4-.3-.9l-.2-.2c-.1-.4-.3-.7-.6-.8v-.3c.2 0 .3-.2.4-.5 0-.1.1-.4.2-.7h.2c.1-.1.1-.2.1-.3h.1c0-.3.1-.5.4-.6 0-.1-.1-.1-.3-.2V43c.1-.5.4-1.2.7-1.9 0-.2.1-.5.2-.9l.2-.2-.2-.3c-.2 0-.1-.2.2-.6.8-.9.3-1.3 1-2.2.1-.1.1-.3.1-.6h.1c0-.7.1-1.2.2-1.3-.1 0-.1-.1-.1-.2h.3c0-.3.2-.7.5-1.2v-.5c.1 0 .2 0 .3-.1-.2-.1-.3-.2-.3-.3.3-.3.5-.8.5-1.3.1-.1.1-.1.2-.1V31c-.1-.1-.1-.4-.1-.8 0 .1.1.1.2.1.2-.1.4-.2.6-.1h.1v-.1l-.3-.2-.4-.4c.1-.1.1-.1.1-.2.1 0 .2 0 .2.1h.2l.2-.4-.4-.2c-.1-1.1 0-1.7.3-1.8.1-.1.1-.1.2-.1.1.3.2.5.1.6l-.4.6c-.1.2-.1.5 0 .8 0 .1.1.1.2.1-.1-.3 0-.7.3-1.1 0-.5.1-.9.2-1v-.4h.2c-.2-.1-.2-.3-.1-.4h.1v.1h.2c0-.3.1-.9.2-1.6l.3-.5c-.1-.1-.1-.2-.1-.3.1-.1.1-.3.1-.5.1-.2 0-.4-.4-.5v-.2h-.3l.3-.6-.2-.4-.2.3h-.1c-.1 0-.1 0-.2-.1-.1.1-.1.1-.2.1v-.3c.3-.3.5-.4.7-.4l.1.1h.2v-.1c-.1-.1-.3-.2-.5-.2-.1 0-.2 0-.3.1h-.2V21l.2-.2c.2-1.1.3-1.8.3-2.1.1 0 .1 0 .2-.1 0-.7.1-1.2.2-1.3l.1-.5h.2v.2c.3-.1.4-.3.5-.6.1-.1.1-.6.2-.6h-.2v.4h-.1v.1c-.1 0-.3 0-.6.1V16h.2c0-.5.1-1.3.4-2.2 0-.1.1-.3.2-.4.3-2.1.5-3.3.5-3.9 0-.1.1-.3.4-.4V7.8l.2-.2V4.3c.1-.2.1-.3 0-.4 0-.1 0-.3-.1-.6-.1-.1-.1-.2-.1-.4.1-.1.3-.1.5-.2v-.4c-.1-.1-.2-.2-.3-.5l.5-.5c.9.1 1.6 0 2.1-.3.6-.1 1-.2 1.1-.1l.2.1c.5-.1.8-.2.9-.5.3 0 .7-.2 1-.5h.5c0 .1 0 .2.1.3v.2c-.1.1-.3.1-.6.2v.6c.5.1.8.5.8 1.3-.1 0-.3.1-.4.3h.1V4c-.1.2-.1.4-.1.5s0 .2.1.3c-.1.1-.3 1-.7 2.9V8c.1.1.2.2.2.3h-.2c.1.1-.1.3-.6.7v.3c.1 0 .2 0 .3.1v.2c-.3.1-.4.6-.4 1.3-.1.1-.2.1-.3.1.1.1.1.2.1.4h-.1c0 .3-.1.7-.3 1.1 0 .1-.1.1-.2.2 0 .5-.1.8-.3 1-.1-.1-.2-.1-.3 0 .2 0 .3 0 .4.1.2.3.4.4.5.5.1.7 0 1.1-.1 1.2l-.1.2c-.1.1-.1.3-.1.6-.1 0-.1 0-.2.1 0 .2 0 .3.1.4 0 .1 0 .2-.1.4h-.3l-.2 1h-.3c0 .5 0 .8-.1.9 0 .1 0 .2.1.2-.1.1-.2.3-.2.6h-.1c0 .3-.2.8-.5 1.3l.2.3-.2.1c0 .4 0 .7.1.9l-.4.1v.5h.1c.2 0 .4-.2.6-.6-.1-.1 0-.1.3-.2.1-.1.1-.4.1-.8h.2c.1-.1.1-.3.2-.5h.4l.7-1.2c.1 0 .3-.1.4-.4.1-.1.2-.2.3-.5.5-.5 1.2-1 2-1.7.3-.1.6-.4 1-.7.1-.2.1-.3.1-.4h.4c0-.1.1-.2.2-.3.1.1.4.1.7 0 .1-.2.3-.4.6-.5.2.1.4.1.5.1v.2c.1 0 .2 0 .3.1v.3c.3 0 .2 0-.5-.1l.1.2c.1.2.1.3.1.4h.5c.1.1.2.2.5.3v.2c.1 0 .3.4.8.4.2.5.5 1.1.9 1.6 0 .1.1.2.2.4v1.1c-.1.4-.2 1-.5 1.7 0 .2 0 .5.1.8-.1.1-.2.6-.2 1.5h-.3l-.1-.1v.2c.1.1.2.1.4.1v.3h-.2l-.2 1.3v1.3c-.1 0-.3 0-.6.1.3.3.5.7.5 1h-.1c0 .1 0 .2.1.2v.2c-.1-.1-.1-.1-.2-.1-.1.1-.1.5-.1 1.1-.1 0-.1 0-.1.1-.1.7-.1 1.2-.1 1.3-.1 0-.1 0-.1-.1-.1 0-.2 0-.3.1v.1h.3l.4.9c.2.1.3.1.3.2s0 .2-.1.3h-.4c0 .1-.1.2-.2.4 0-.1 0-.1-.1-.1-.1.3-.2.5-.2.7.1.1.1.4.1.9l-.5.4c-.1-.4 0-.7.3-.8l-.4-.3c0 .3-.4.6-.4 1 .3.2.4.4.4.6l-.2.3c.1.2.1.8.1 1.7-.3.3-.4.4-.3.4s.2.1.4.2v.2l-.4.3V40c-.1 0-.3 0-.4.1 0 .7-.1 1.1-.2 1v.1c0 .1-.2.1-.2.4.1 0 .1 0 .2.1v.2c-.1 0-.1.1-.2.3h-.1c0 .7.2 1.5.5 2.3.3 0 .5 0 .7-.1 0-.1.2-.1.2-.5.3-.1.5-.2.5-.4.3-.1.5-.2.6-.5.2-.1.3-.4.4-.9l.6-.6c.1-.2.2-.4.5-.7l.1-.2c0 .3-.1.1-.3-.4.3-.1.5-.4.5-.9.3 0 .5-.2.5-.7.1-.1.4-.1.7-.1l-.4-.1.1-.5c0-.1.1-.3.2-.6l.2.1.3-.9c.1-.1.2-.3.3-.7.1 0 .1-.1.2-.2l.3-.4v-1.4l.1-.1c0-.1 0-.3-.1-.4v-.5l.5-.6c.7-.1 1.1-.1 1.2 0l.2.1v.2c-.2 0 .1.1.8.2 0 .3 0 .4.1.4l.2-.2c.1-.4.3-.7.7-.8-.2-.1-.7 1.5-.7 2zM143.7 43c-.1.1-.1.1 0 .2V43zm.5 4.9zm.1-6.9h.2-.2zm.9-1.6c-.1-.1-.1-.2 0-.3-.1 0-.1 0-.2-.1v.6l.2-.2zm.4-1.9l-.2-.1.2.1zm1.2 6.7l-.8.7c.3.2.5.4.6.7 0-.1 0-.1.1-.1.1-.4.2-.6.1-.7v-.6zm-.3-10.2l.3.1c-.1.1-.1.2-.1.4h.1v-.2c.2-.1.2-.3.1-.6l-.4.3zm.4 14.9v-.2h-.1c-.3.1-.3.3-.2.4l.3-.2zm.2-19.2l-.1.2-.1.1c-.1-.1-.1-.2-.1-.3h.3zm-.1.7c-.2-.1-.2-.1-.2-.2h.2v.2zm.5-5.2c0 .2-.1.4-.4.5-.1-.1-.1-.1-.2-.1 0-.1.1-.3.2-.5l.4.1V25v.2zm.2 1.5c0-.5-.1-.7-.2-.8l-.6 1.4h-.1c0-.2.1-.3.2-.4-.1-.2-.1-.3-.1-.4.1-.1.1-.2.1-.3 0-.1 0-.2-.1-.3.3-.1.6-.2.7-.2.2 0 .3.1.4.2l-.1.3c.1.2.2.4.2.5h-.4zm-.8 5.6c.1-.1.1-.1.2-.1-.1 0-.2 0-.2.1zm.8-8.4c-.2.3-.3.6-.6 1.1h-.1l-.1-.1c.1-.1.1-.4 0-.7l.4-.1c0-.3.1-.5.4-.4v.2zm-.4-.4c0 .1-.1.2-.2.2v-.2h.2zm0 9.8l-.2-.1.2.1zm.7-10.7c-.1.2-.2.5-.4.8-.1-.1-.1-.4-.1-.8-.1-.2 0-.4.1-.5.1 0 .3.1.5.2 0 .1 0 .2-.1.3zm.1 2.7c0-.1 0-.2-.1-.3h-.2c0-.1 0-.3.1-.4-.2-.1-.3-.2-.3-.3.3 0 .4.1.4.4.3.2.4.4.3.6h-.2zm-.3-.1zm.5-6c0 .1 0 .1-.1.2l.1-.2zm-.1.6l.2-.3c.1 0 .2.1.2.2-.2.1-.3.1-.4.1zm0 27.3c.1.1.1.1 0 0zm1.4-28.8l-.9.8h-.3c.1.1.1.1.2.1v.2l.2-.2.1-.3c.1 0 .3.1.4.4.2 0 .3 0 .4.1h.2c-.1-.2-.2-.4-.2-.5 0-.1.1-.2.3-.3 0-.2-.1-.3-.4-.3zm-.4 4.3c-.1-.1-.1-.1-.1-.2-.1-.3-.1-.4.1-.5v-.5l-.3.2h-.3v.4c.1 0 .1 0 .2-.1.1.3.1.5.1.4-.1 0-.2.1-.4.2.3 0 .5 0 .7.1zm-.5.7c-.1.1-.1.1-.2.1v-.2l.2.1zm-.2 23.2l.1.2c0-.1 0-.1.1-.2h-.2zm.4-28.5v-.2h-.1v.5h-.2l.2.3c.1-.2.1-.4.1-.6zm-.2 5.8zm.3-4.2c0-.1-.1-.1-.2-.2v.2h.2zm0 22.5v-.3c-.1.1-.1.2 0 .3zm-.1.5v.4c.1-.2.1-.3 0-.4zm0 1.6c.1-.1.1-.2 0-.3v.3zm.4-23.2h-.3c-.1.1 0 .2.1.3l.2-.3zm.6-3.9l-.4.1V17h-.2v.1l-.2.1v.2l.1.1.3-.2.1.1h.1l.2-.3zm-.6 6.4v-.2c-.1 0-.1 0-.2.1v.1h.2zm-.1 22.3c0-.1 0-.1 0 0l-.1.2.1-.2zm.3-25.3h-.3c0 .1 0 .1.1.2.1 0 .1 0 .2-.2zm.2-2.5h-.3c.1.1.1.1.3 0zm-.2 2.1c-.1-.1-.1-.1 0 0zm4.7-9.8V10h-.7l-.2.2h-.2c0 .3.1-.1.2-1.1h.2c.1-.3.2-.6.2-.8V6.9c0-.1 0-.1-.1-.1-.1.2-.1.4 0 .5-.1 0-.1 0-.2.1h-.2c-.1.2 0 .4.2.5-.1.1-.1.1-.1.2-.1.3-.1.5-.2.5-.3 1.1-.4 1.6-.5 1.5-.1-.1-.2-.1-.3 0h.2v.4h-.2c0 .1 0 .2.1.2-.1.1-.1.2-.1.3h-.1c-.1-.1-.1-.2-.2-.2-.1.1-.1.2-.2.2h-.1c-.1-.1-.1-.1-.1-.2-.1.1-.1.2 0 .4.2.1.3.1.3.2h.2c.1.1 0 .3-.2.5l-.1-.1h-.1c0 .1 0 .2.1.3v.7l-.2 1c-.1 0-.1.1-.2.2l-.1.3c-.1.4-.2.5-.5.4-.1.1-.1.1-.1.2-.3-.1-.5-.1-.6-.1v-.3h-.3c-.2.1-.3.1-.4.1-.1.1 0 .3.3.6.1 0 .3 0 .5.1.1-.1.3-.1.5 0v.1h.1c0-.3.1-.4.3-.4v.5l-.5 1-.4-.4.3.7c.1-.1.1-.2.1-.3h.5c0-.1 0-.1.1-.2h.3c0 .1.1.1.2.1V16h-.3c-.1-.2-.1-.4 0-.5.1.1.2.1.3.1 0-.1-.1-.2-.2-.3v-.1h.3v-.4h-.1c0-.2 0-.3.1-.4l.1.1.2-.2-.2-.1c0-.1 0-.2.1-.4l.1-.7V13h.2c-.1-.1-.1-.4-.1-.7h.1c.1-.3.2-.7.4-1l-.1-.2.4-.3c0-.1-.1-.2-.2-.2l.4-.4c.1 0 .2.1.3.2.1-.1.1-.1.2-.1v-.1h.5zm-4.5 4.9h-.2c0 .1 0 .1.2 0zm.2 15.3l-.4-.1c0 .1 0 .2.1.3.1-.1.2-.1.3-.2zm-.1 2.6c-.1-.1-.1-.1-.2 0h.2zm.1-19.9h-.2v.2l.2-.2zm.1 16.6v-.3h-.1l-.2.1c.1.1.1.1.1.2h.2zm.1-17.8v-.2h-.1l.1.2zm0 .3zm.2-1.6c0-.1 0-.1-.1-.2h-.1v.2h.2zm-.2.4c.1 0 .1 0 .2.1.1-.1.1-.1.1-.2-.1 0-.2 0-.3.1zm.1 5.3c0-.1 0-.2-.1-.2l.1.2zm.1-4.5zm.1 1.9zm.6-1.8c-.1-.1-.1-.3-.1-.5h-.2c-.1.3-.2.5-.3.5.1.2.1.3.1.4h.3l.2-.4zm-.3.7v-.2c-.1 0-.1 0-.2-.1v.3h.2zm.2 2.7h-.2c0 .1 0 .1.1.2l.1-.2zm1.5-11.3c-.1 0-.1.2-.2.4 0 .1 0 .2.1.2 0 .2 0 .3-.1.4 0 .5-.1.8-.2.8-.1.3-.1.4-.2.4v.5c-.1.1-.2.4-.2.9-.3.8-.4 1.5-.4 2h-.2l-.1.9c.1.1.1.1.1.2-.1.1-.2.3-.2.6.1 0 .2-.1.4-.3 0-.4 0-.7.1-.8h.1c.1-.2.1-.6 0-1.1l.4-.7v-.7l.2-.3.2.1v-.1h-.1c-.1-.1 0-.4.2-.7 0-.5.1-.7.2-.8.1-.3.1-.6.2-.7 0-.1 0-.1-.1-.1 0-.1.2-.8.2-1.1h-.4zm-1.5 3.8v-.2h-.1l.1.2zm-.1 6.2c0 .1.1.2.2.4.1-.1.1-.2.1-.3-.1-.1-.2-.1-.3-.1zm.2-5.5c.1.1.1.1 0 0zm.6 4.2c0-.1 0-.1 0 0h-.3c0 .1 0 .1.1.2v.4c.1-.1.1-.1.2-.1v-.5zm.1-1.5c-.1.1-.1.1-.2.1v.3c.1-.1.1-.1.2-.1v-.3zm0 12.6c-.1-.1-.1-.1 0 0zm.4-8.2v-.2c-.1.1-.1.2 0 .2zm.2 6.5c-.1-.1-.2-.2-.3-.2v.1l.3.1zm.1-8.7v-.2h-.1l.1.2zm.2-9.4l-.1.2h.1v-.2zm.5 8.3c0-.1 0-.2-.1-.2h-.3c-.1.1-.1.2-.2.2 0 .1 0 .2.1.3l.3-.3h.2zm.7-5.8zm0 6.2v-.3h-.1l.1.3zm0 12.4l-.1-.2h.1v.2zm.1-10.9v-.2h-.1l.1.2zm.8-8.2c-.3-.1-.4-.1-.5-.1v.2l.5-.1zm-.4 17.7c.1.1.1.1 0 0zm.1 17.3zm.1-27.5zm.2-2.8v-.2h-.1l.1.2zm0-2c.1 0 .2 0 .2-.1-.1.1-.1.1-.2.1zm.4.7zm.1-.1zm.2-8.1c-.1 0-.1 0-.2.1v.1h.5c.1 0 .2-.1.2-.2-.3.1-.4.1-.5 0zm.1.9h-.2.2zm.1 3.5c-.1.1-.1.2-.1.3h.1c.1.3.1.5.1.6.1-.1.2-.3.2-.4-.1-.1-.2-.2-.3-.5zm.2 30.3l-.1-.2h.1v.2zm.3-1.5h-.2.2zm0-31.4zm0 18.2c.3 0 .4-.1.5-.2.1-.5.1-.7.1-.6-.3.3-.5.6-.6.8zm.2-2.6zm0 6.2c0 .1 0 .1 0 0zm1.7 4.8v-.2l-.3.1v-.1c0-.1 0-.1.1-.1v-.7h-.1c.1 0 .1 0 .2-.1 0-.5 0-.7.1-.7v-.2c-.1-.1-.2-.1-.3-.1-.1.3-.2.8-.2 1.6l-.4.3v.2l-.2-.4-.4.4h.3c.2.1.3.1.4.1v.3l-.1.5v.4c.2.2.1.7-.3 1.4-.1.1-.2.2-.3.2.2.5.3.7.3.6h-.2c0-.1 0-.1-.1-.1-.2.1-.3.2-.3.4.1-.1.2-.1.3-.1.1.1.1.3.1.7-.1.1-.1.1-.2.1 0 .2.1.3.2.4 0 .3 0 .4.1.5h.2V35h.2c.1-.4 0-.6-.1-.6 0-.2.1-.3.2-.3l-.2-.3.2-.2h.2l.1-.4c-.1 0-.2.1-.2.4h-.1c0-.5 0-.7.1-.8.1 0 .1 0 .2.1v.2h.2v-.2h.1v-.2h-.3c0-.1 0-.4-.1-.8h.1v-1.3c.1-.1.3-.2.4-.2-.1 0-.3 0-.4-.1v-.6h.5zm-1.7 9.9c.1 0 .1.2.2.5.1-.1.3-.1.4-.1 0-.2-.2-.3-.6-.4zm.2-7V32c-.2.1-.2.3 0 .6zm.2-1.4l-.3-.1v.2c.1 0 .2.1.3.3v-.4zm-.1.7v-.3h-.1l.1.3zm.5-4.5h-.2v.1l.2-.1zm.6 14.6c-.2-.5-.4-.6-.7-.4l.4.6.3-.2zm-.6-13.9v.2c.1-.1.1-.1 0-.2zm.2-1.3l-.1.3c.1-.1.1-.1.2-.1-.1 0-.1-.1-.1-.2zm.2-1.7l-.2-.1v.1h.2zm.6 2.4c-.1-.4-.2-.8-.2-1.1-.1.1-.1.1-.2.1v.2c-.1.2-.2.4-.2.5 0 .1.1.2.3.3h.3zm-.4 18zm0 .2zm.2-14.2v.3c.1 0 .1-.1 0-.3zm.2 9.4zm.4 5.2v-.3c-.1-.1-.2-.4-.3-.8h-.2c.1.2.1.7.1 1.5.1.1.1.1.2.1.3-.1.5-.2.5-.4-.1 0-.2 0-.3-.1zm-.2-29zm.2 22.3c-.1-.1-.1-.2-.1-.3 0 .1 0 .2-.1.3h.2zm.3-1.6h-.3c-.1.2-.1.3-.1.4 0 .3 0 .6.1.7.1 0 .2 0 .3-.1l-.1-.5c.1-.1.1-.1.2-.1 0-.1 0-.3-.1-.4zm.2-9.3v-.4l-.2.1-.1.1c-.1.1-.1.1-.2.1v.2c.1.1.1.1.2.1h.1l.2-.2zm-.4.4v.2c.1 0 .1-.1 0-.2zm.2 8.4V37h-.2v.3h.2zm.2-9.4v-1.3h-.1c-.1.1-.1.5-.1 1v.3h.2zm.5-4.9c.1-.3.1-.4.1-.5h-.2c0 .1-.1.5-.4 1l.4.2c0 .1-.1.4-.3.7.1.1.1.1.1.2h.2c0 .1.3-1 .3-1.6h-.2zm-.4 1.8c-.1.3-.1.6.1.9h.1c.1-.4.1-.7.1-.8-.1-.1-.2-.1-.3-.1zm.3-2.9c-.1.2-.2.3-.1.4.1 0 .2 0 .3-.1-.1-.2-.1-.3-.2-.3zm.6 10.9zm.6-15.8v-.2h-.2l.2.2zm.1 19.7v.2c.1-.1.1-.1 0-.2zm.6 1.8c0 .1 0 .1-.1.2l.1-.2zm.1-10.4v.2c.1-.1.1-.1 0-.2zm.1 9.1c0-.1 0-.2.1-.3.1.1.1.2.1.3h-.2zm.6-9.3c-.1 0-.2-.1-.3-.2h-.1c-.1.1-.1.1-.1.2l.3.2c.1 0 .1 0 .2-.2zm-.1 1.7c0-.2 0-.3-.1-.4h-.1c-.1.1-.2.3-.2.4h.4zm-.2.4c.1-.1.1-.2 0-.3v.3zm.2-12.3v-.2h-.1l.1.2zm0 9.2v-.3h-.1l.1.3zm.2 1.8v-.2h-.3c0 .1 0 .1.1.2h.2zm-.2 2c0-.1 0-.1-.1-.2l.1.2zm-.1 1.2c0 .1 0 .1 0 0zm.4-5.3c-.1.2-.1.2 0 .2v-.2zm.1 1.6l-.2-.1c0 .1 0 .1.2.1h.2-.2zm.1-4.2c-.1-.1-.1-.1-.2-.1v.1h.2zm0-5.9c0-.1 0-.1 0 0zm0 5.2V23h-.1l.1.3zm.3.1v.3-.3zm0 .6zm0 22.5v-.3.3zm.1-25.9c0 .1 0 .1.1.2-.1-.1-.1-.1-.1-.2zm.9 24.1c.1.1.1.1 0 0zm1.2-1.4h-.2v.2c.1 0 .1 0 .2-.2zm1.3-2.7c-.1-.1-.1-.1-.2-.1v.4l.2-.3zm.4-.6zm.2-4.5v-.2h-.1l.1.2zm1.3 1.6c-.1.1-.1.1-.1.2h.1c0-.1.1-.1.2-.2h-.2zm.7-4.1v-.2c-.1-.1-.2-.1-.3-.1 0 .1.1.2.3.3z"/><path class="st142" d="M188.3 33.9l-.1 1.1-.1.1c-.1.1-.2.7-.2 1.6-.1.1-.1.5-.2 1.1-.1.1-.1.2-.1.3h.1c0 .1 0 .1.1.2l-.3.1.2.4-.3.9v.5c-.1.2-.2.4-.5.6v.7c-.3.3-.6.9-1.1 1.8 0 .1-.1.1-.2.2 0 .3-.2.8-.6 1.5v.4l-.3.2v.2l-.7.6v.2c-.2.1-.3.3-.4.6-.7.3-.7.2-1.9 1-.2.1-.6.2-1.1.2l-.2.2h-.7c-.2-.1-.5-.1-1 .1-.1 0-.3 0-.6.1-.1-.1-.5-.1-1.1-.2-.1-.1-.5-.2-1-.3-.2 0-.5-.1-.8-.2h-.2c-.1-.1-.3-.2-.7-.3-.1 0-.2 0-.3-.1l-.5-.2c-.3-.1-1-.4-2.6-1.2h-.1c-1.2-.4-1.5-1.7-2-1.7V44c-.1-.1-.2-.3-.5-.5v-.4h-.3c-.1-.2-.1-.4-.1-.6 0-.1 0-.3.1-.5 0-.1-.1-.2-.2-.4 0-.5 0-1.5-.1-3 0-.1-.1-.1-.2-.2v-.2h.1c0-.4-.5-1.6-.5-2.3 0-.7 0-1.1.1-1.4 0-.3 0-.3 0 0-.1 0-.1-.1-.1-.2l.1-.1c0-.6.1-.9.2-1v-.1c-.1-.1-.1-.3-.1-.5s.1-.4.2-.7c-.1-.2-.1-.6 0-1.2.1-.1.2-.5.3-1.2v-1.8h.1l.3-.4c.1-.2.2-.5.1-.9.1-.1.2-.4.2-.9.3-.1.4-.4.3-.7-.1 0-.1-.1-.1-.2.1-.2.1-.6.1-1.2.3-.1.4-.4.4-.9.1-.1.1-.3.2-.6l.6-.5h.4l.3-.5c.5-.3.8-.7 1.1-1l.3-.1c.3-.1.7-.5 1-1 .9-.3 1-.4 1.4-.8.1 0 .3 0 .6-.1 0-.1 0-.1.1-.2.5-.1.7-.2.6-.2h.1c.1-.3.4-.5.8-.5 0 .1.1.1.3.1.3-.1.6-.4.9-.7h.5l.5.4c.5-.1.4.3.8.3l.1-.1h1.5c.2.2.5.3.8.3l.3.3c.5 0 .8.3 1 .8.4.2.7.5.9 1l.3.2.4.2c.1.1.2.3.2.7.3.3.5.6.5.8l.4.5v.5c.1.2.3.5.6.8 0 .3.1.5.3.6 0 .1 0 .2.1.3v1c-.1 0-.1.1-.1.2h.1v.7l-.3.5c.1.1.1.2.1.3-.2.1-.3.4-.3.7-.4.1-.6.4-.6.8l-1.5 1.5c-.3.3-.5.5-.8.6v.5c-.3.1-.5.3-.6.5h-.2c0 .2-.1.3-.2.4-.1.3-.2.5-.3.4l-.1.2-.8.6v.1c-.5.2-.7.5-.7.8-.5.3-1.1.7-1.8 1.4-.1 0-.3 0-.6.1 0 .3-.1.4-.4.3h-.4c0 .1 0 .1-.1.1l-.6.2c-.4.1-.6.2-.7.2-.3-.1-.5-.2-.6-.2-.1 0-.2 0-.2.1s0 .1.1.1v2.5c.1.1.2.2.2.5.1 0 .1.1 0 .4.1.1.2.4.2.7-.1.1-.2.3-.2.4 0 .2.1.4.2.5.1.4.1.7.1 1l.3.2c.3.1.5.2.5.3-.1 0-.2 0-.3.1 0 .3.2.5.5.6 0 .1 0 .1.1.2.7.1 1 .1.8.2v-.2c.2 0 .3.1.4.2l.2-.3c.5 0 .8-.1.9-.2h.3l.4-.2c.1-.1.2-.1.2-.2.3-.1.7-.5 1-1l.6-.6c.1-.1.2-.1.4-.1 0 .2.2 0 .6-.6l.4-.5c.1-.1.5-.4.6-.7-.1 0 0-.3.5-.9l.4-.8.4-.4v-.5c.2-.1.3-.1.3-.2 0-.5.2-1.1.6-1.8l-.1-.2h-.2v-.4h.3c0-.1.1-.3.2-.6.1-.1.2-.1.3-.1v-.2c.3-.1.4-.1.5-.1v-.2h.4c0-.1-.1-.2-.2-.3v-.4c.7-.1 1.2.1 1.5.5 0 .1.1.1.2.2l-.7 1zm-19.2-8.3v.3c0 .1 0 .1-.1.1v.1c.1 0 .1 0 .1.1v-.6zm.4 14.4c0 .1 0 .1 0 0v.4c.1-.1.1-.2 0-.4zm0-3.1l.2.1c.1.2.1.4.1.5.1-.1.1-.1.2-.1-.1-.1-.1-.1-.1-.2.2-.1.3-.2.3-.3h-.7zm.6-14.6zm.1 17.5c.1-.2.1-.4 0-.7h-.2c0 .1 0 .2.1.3-.1.1-.1.2-.1.4h.2zm0-12.9c-.1.3-.2.4-.1.5.1 0 .2 0 .3-.1.1-.3 0-.4-.2-.4zm1 3.3V30h-.4c0-.1 0-.1-.1-.2-.3-.1-.4-.2-.5-.3-.1.7 0 1.1.3 1.3.2-.2.3-.4.3-.6h.4zm-1 9.8c0 .2 0 .3.1.2l-.1-.2zm.7 2.9c0-.1 0-.2-.1-.3h-.2v.1c0 .1 0 .1.1.2h.2zm0-19.5c.1.1.1.1.1.2 0-.1 0-.1.1-.2h-.2zm1.4 21.4v-.2h-.1l.1.2zm1.9-17.4h-.2c0 .1.1.3.2.4l-.4.3-.1.2c.1.1.1.1.2.1v.3c-.1 0-.2 0-.2.1-.1.5-.1.8-.1 1.1h-.1c0 .1.1.3.2.5h.2c-.1-.1-.1-.2-.1-.3.1-.3.1-.6.2-.7h.1c0-.9.1-1.5.3-1.7l-.2-.3zm-.7 3.2v.6c.2-.1.2-.3 0-.6zm1.6-12.3c-.1 0-.2 0-.3.1v.3h.1c.1-.1.1-.1.2-.1v-.3zm0 17.7zm0 2.6v-.5h-.1l.1.5zm.3 1.5h-.2.2zm.4-20.7c-.1 0-.2.1-.3.2v.2c.2 0 .3 0 .4-.1-.1-.1-.1-.2-.1-.3zm-.3 8.8c.1.1.1.1.2 0h-.2zm6.7-2.3v-1.4c-.1-.1-.2-.1-.3-.1l.3-.2c0 .1-.2-.6-.6-2.2l-.6-1.4h-.1c-.1-.3-.1-.4-.1-.5-.5-.2-.9-.4-1.1-.6-.6.1-.9.3-.9.6-.2.1-.4.1-.5.1 0 .3-.1.4-.3.4-.1.2-.1.4-.1.5l-.3 1.3c-.3.6-.5 1.1-.6 1.6-.1.3 0 .4.1.5l-.1.1c-.1.3-.1.5-.2.5-.1.5-.3.8-.4.8 0 .3.2.5.2.6-.1.1-.1.1-.2.1v.8l-.2.5c-.1.8-.2 1.7-.4 2.7v1c-.1.1-.1.3-.2.6s0 .5.1.6c0 .1 0 .2-.1.4v.2c.3-.1.6-.2.8-.5.1-.1.3-.1.5-.1v-.1h.3c.1-.3.4-.5.7-.6.1-.3.4-.5.9-.5v-.2l.6-.3c1.2-.3 1.6-.4 1.2-.4.2-.4.4-.6.5-.7v-.2h-.2c.1-.4.3-.6.4-.6 0 .3 0 .2-.1-.3l.3-.2c.1-.5.1-.7.2-.8-.1-.1-.1-.2-.1-.4h.1c0-.5 0-.8.1-.8.1-.1.1-.2 0-.3.1-.1.1-.1.2-.1v-.4h.2zm-5.4-7c-.3.1-.4.2-.5.4l-.3.1c-.1.4 0 .7.2.8.1-.1.2-.1.3-.1v-.5c.1-.1.2-.1.3-.1.1-.4.2-.7.2-.8-.1 0-.1.1-.2.2zm-.7 8.1zm.7 15.7zm.9-25.4zm1.2 14.7c-.1.1-.1.1-.1.2h-.3c0 .3-.2.5-.5.6-.1.1-.1.2-.1.4.3-.1.4-.3.4-.4.3-.1.6-.2.8-.5-.1-.1-.2-.2-.2-.3zm.1-14.6zm0 18.2zm1.1-.5h-.2.2zm0 12.8zm.4-16.7c-.1-.1-.2-.1-.3-.1-.1.1-.1.2-.1.4.1-.1.2-.1.4-.1v-.2zm5.1 9.4v-.4h-.2l-1.2 1.2c.2.2 0 .5-.5.8.1.1.1.2.1.3l-.3.2c0 .1 0 .2.1.3-.3.5-.7.7-1.1.7l-.2.3-.7.2c-.3.2-.7.5-1.2 1h-.3c-.1.1 0 .2.1.3.1 0 .3-.1.7-.2l.4-.1c.1-.3.2-.4.3-.5l.3-.3c.6-.1 1 0 1.1.3l.2-.3.2-.2c.3-.3.4-.6.4-.9h.1c.3-1.1.7-1.9 1.4-2.4 0-.1 0-.2.1-.3h.2zm-4.1 6.6c0-.3-.1-.7-.2-1.1h-.2l-.1.1c.1.5.1.8.1 1h.4zm.3-23.3h-.3v-.1l.3.1zm-.2 2.9zm1.3 20.2c-.2-.1-.3-.1-.4 0v.2h.3l.1-.2zm.6-.2h-.2.2zm1.2-18.1c0-.1 0-.1 0 0h-.2.2zm.1 10.3c-.1-.1-.1-.1-.2-.1v.1h.2zm0-10.8c-.1.1-.1.1 0 .2v-.2zm.5-7c-.2.2-.3.3-.3.4l-.1.1c.1 0 .3 0 .4-.1v-.4zm0 6.7zm0 9.9v-.2h-.1l.1.2zm.4 1.5c-.1.1-.2.3-.2.6.2 0 .4-.2.5-.5-.1-.1-.2-.1-.3-.1zm0-17c.1.1.1.1 0 0zm.4 14.2c.1-.2.1-.3 0-.4v.4zm.4-13.6l-.1.2.1-.2zm0 .9zm0 11.3l-.1.2.1-.2zm.5-2.3zm.5 4.2v-.2h-.2c0 .1 0 .1.2.2zm0-3.7c0 .1 0 .1 0 0zm.3 1.9c-.1.1-.1.3 0 .5v-.5zm.4-2h.2-.2z"/><path class="st142" d="M210.2 24.8c-.1 0-.4.1-.7.2.2.3.1.7-.3 1.3h-.2c0 .1 0 .4-.1.7l-.2.2-1.3 2.1c0 .2-.2.4-.5.5v.2l-.9.7c-.1 0-.2 0-.3.1v.1h-.7v-.1c-.2 0-.3 0-.4.1-.1-.1-.4-.1-.9-.2-.1 0-.3 0-.5-.1 0-.5-.1-.8-.2-.9v.1-.5c-.1-.3-.2-.6-.5-1l-.1-.3c-.1-.3-.1-.9-.1-1.6-.1 0-.2 0-.3-.1V26c.1-.1.1-.1.2-.1l.3-2 .3-.3.2-.6c.1-.1.2-.1.3-.1-.1-.1 0-.3.2-.5V22c.2-.1.3-.2.4-.4l.5-.5v-.4h.1l.1.1v-.4c-.1-.1-.1-.1-.2-.1v-.1c.1.1.1.1.2.1l.6-.7c-.1-.1-.3-.1-.5-.1l-.1.1h-.2v.1c-.5 0-.9.2-1 .7h.3c-.1.1-.1.3-.2.5-.2 0-.3 0-.4-.1-.1.1-.1.1-.2.1-.1-.1-.3-.1-.4 0-.1.3-.4.6-.9 1-.1.2-.3.3-.6.4 0 .2-.1.4-.2.7 0 .1 0 .1.1.2-.3.1-.4.3-.5.6-.3.1-.4.3-.5.6-.1 0-.3.2-.5.6v.3h-.3c0 .5-.2.7-.5.7 0 .1.1.3.4.6v.4l-.2.4h-.2c-.1.3-.2.5-.5.6v.4l-.3.3c0 .7 0 .9-.1.7h-.2v1.1h-.3c-.1.1-.1.3 0 .4-.3.7-.5 1.3-.5 1.9.1 0 .1 0 .2.1v.1c-.1.1-.2.4-.4.9 0 .1 0 .3.1.6-.1 0-.1 0-.1.1v.4h-.3l-.3 2.2h-.2c.1.1.1.2 0 .3.1.1.1.3.1.4-.1.1-.2.4-.1.8.1-.1.2-.1.3-.1v.2c-.1.1-.2.1-.3.1 0 .6-.1 1.2-.2 1.9v.6h-.3c-.1.1 0 .2.1.3v1l-.5 1.1v1.3c.1.1.1.3.2.6l-.3.3c0 .4 0 .6-.1.7 0 .3 0 .4-.1.4h-.2l-.3.6-.1.1c-.4 0-.6.3-2.1.7-.1.3-.3.3-.7.2-.1 0-.1 0-.2.1h-1c-.2 0-.4 0-.6-.1-.7 0-1.2-.3-1.3-.9 0-.1.1-.3.2-.6.3-.1.4-.3.5-.8l.4-.5c0-.7 0-1.1.1-1.4 0-.1.1-.1.3-.1 0-.6 0-.9.1-.9 0-.3.2-.5.5-.6.1-.2.1-.3.1-.4h.1c.1-.5.1-.8.1-1l.1-.1c-.1-.1-.1-.2 0-.3l.1-2.9h.1v.1h.1c.1-.1.1-.2 0-.3h-.2c-.1-.1-.1-.3 0-.4l.2-.4v-.4c-.1-.1-.2-.3-.2-.4h.2c.3-.3.4-.7.3-1.3-.1-.8-.1-1.3 0-1.5-.1-.1 0-.2.1-.3v-.4c0-.4.2-.9.5-1.4-.1-.1-.2-.1-.2-.2l.3-.3v-.3h-.2c.1-.1.1-.1.2-.1v-.2l-.2-.3.3-.1c0-1 .1-1.5.2-1.6V28c.1-.1.2-.3.2-.6v-.7c.1-.1.1-.3.2-.6-.1-.2-.1-.3.2-.4 0-.1 0-.1.1-.2l-.3-.2c-.3.1-.4.2-.5.2l-.1.4h-.3l-.6.5-.2.2h-.2c-.3.3-.5.4-.6.4l-.4.9c-.1 0-.3.1-.5.4h-.1c0 .2 0 .3-.1.4h-.3v.3h-.1c0 .1-.1.3-.4.6 0 .4-.2 1.1-.2 1.5-.2.1-.3.5-.3 1.4-.1.5-.3.7-.6.6l-.1-.1h-.3c0 .1-.1.1-.3.1-.2-.2-.4-.3-.7-.4 0-.1 0-.2.1-.4h-.1v-.4h.1v-.4c.1 0 .2 0 .3-.1.1-.3.1-.5.2-.5 0-.5 0-.8.1-.9-.1-.1-.1-.3 0-.5h.2c.1-.4.1-.6.2-.6.1-.6.1-.8.2-.6.1-.3.2-.6.5-1 0-.3.2-.9.2-1l.7-1.6c.1-.2 0-.4-.2-.5l1-1.7c0-.1 0-.4.1-.7.3-.4.6-.9.9-1.5.3-.1.4-.3.5-.6.1.1.2.1.3.1.7-.7 1-.9 1-.8l.4-.3c.2-.4.4-.6.6-.6V18h.6v.1h.2c.1-.1.1-.1.1-.2.3 0 .5 0 .6-.1l.5.3c0-.1 0-.1.1-.2.3 0 .6.2.9.6l.4.1.4.4c0 .7.1 1.1.4 1.3.1.1.1.3.1.6-.1.3-.1.4 0 .5 0 .6 0 .9-.1 1 .1.1.1.6 0 1.3 0-.1-.1-.1-.2-.1v.3s.5-.7 1.4-2.1c.1 0 .2 0 .4-.1 0-.3 0-.5.1-.6h.2c0-.1 0-.3.1-.4.3 0 .6-.3.7-.8.2-.1.4-.2.7-.5.3-.5.7-.9 1.4-1 .6-.4.9-.7.9-1 0-.1.1-.2.3-.4h.4c.1-.2.2-.3.4-.3v.1c-.2 0 0-.1.6-.2 0-.1.1-.3.4-.4.1-.1.3 0 .6.1.6.1.8.1.7.1.1-.1.2-.2.5-.1.2.1.4.3.7.6.1.1.1.2.1.3h.2l.2.4h.1v.1c.1 0 .1 0 .2.1l.2.2h.1l.4.7h.3c.1.1.1.4.2.9l.4.4c0 .6 0 1 .1 1.1-.1.1-.2.2-.2.4.3-.1.5-.1.6 0l.3.3-.2.2c.2.1.3.9.3 2.4l-.5.4zm-22.9 1.6c-.1 0-.1 0-.2.1v-.2l.2.1zm.3 4.3v-.2h-.3c0 .1 0 .1.1.2h.2zm.4-4.5v.2c.1-.1.1-.1 0-.2zm.7-1.7v.3c.1-.1.1-.2 0-.3zm.8.7l-.3-.1c.1.2 0 .4-.2.5 0 .1 0 .1.1.2h.4c.1-.1.1-.2.2-.2-.1-.2-.2-.3-.2-.4zm.3-.3l-.3-.4c0 .1 0 .3.1.4h.2zm0-3.1v-.2.2zm.4.1h-.2c0 .1 0 .1.2 0zm.6 26.1c-.1.1-.1.1 0 0zm.2-27.5v-.2h-.1l.1.2zm.2 19.7V40h-.1l.1.2zm.1-6.3c0 .1 0 .1 0 0zm.6-.4l-.1-.2c-.1 0-.1 0-.2.1.1.3 0 .4-.3.5v.1c.2-.1.4-.1.5-.1l.1-.4zm-.5 1.8c-.1.1-.1.2 0 .3v-.3zm.3-2.3c-.1-.1-.1-.1-.2-.1v.1h.2zm1.1 11.4c0-.2-.2-.3-.5-.2-.5 0-.4.7-.8.8 0 .3.1.5.3.7-.1.2 0 .6.1 1.1.1-.1.3-.1.4-.1v-.3c0-.5.1-.7.3-.8.1-.4 0-.7-.1-.8v-.2l.3-.2zm-1.1 3.5c-.1-.1-.1-.1-.2 0v.1l.2-.1zm.7-19.5v.2h.2c0-.1.1-.3.2-.4-.1 0-.2.1-.4.2zm.5 11.8v.3c.1 0 .1 0 .1-.1s0-.2-.1-.2zm.5.6v-.2h-.2l.2.2zm.1-.5c0 .1 0 .1.1.2-.1-.1-.1-.1-.1-.2zM195 42c-.1-.1-.1-.1 0 0zm.8-4.1zm1-15.9c.1.1.1.1.2 0h-.2zm.2 8.3v-.2h-.1l.1.2-.2-.1v.1h.2zm8.9-2.2c-.1 0-.3 0-.5.1v.5c-.2.2-.2.3-.1.4v.3h.3c.1-.3.3-.5.5-.6 0-.3.1-.4.3-.4-.1-.2-.3-.3-.5-.3zM206 17zm.1 13.2c0-.1 0-.1-.1-.2l.1.2z"/><path class="st142" d="M229.4 33.9l-.1 1.1-.1.1c-.1.1-.2.7-.2 1.6-.1.1-.1.5-.2 1.1-.1.1-.1.2-.1.3h.1c0 .1 0 .1.1.2l-.3.1.2.4-.3.9v.5c-.1.2-.2.4-.5.6v.7c-.3.3-.6.9-1.1 1.8 0 .1-.1.1-.2.2 0 .3-.2.8-.6 1.5v.4l-.3.2v.2l-.7.6v.2c-.2.1-.3.3-.4.6-.7.3-.7.2-1.9 1-.2.1-.6.2-1.1.2l-.2.2h-.5c-.2-.1-.5-.1-1 .1-.1 0-.3 0-.6.1-.1-.1-.5-.1-1.1-.2-.1-.1-.5-.2-1-.3-.2 0-.5-.1-.8-.2h-.4c-.1-.1-.3-.2-.7-.3-.1 0-.2 0-.3-.1l-.5-.2c-.3-.1-1-.4-2.6-1.2-1.2-.4-1.5-1.7-2-1.7V44c-.1-.1-.2-.3-.5-.5v-.4h-.3c-.1-.2-.1-.4-.1-.6 0-.1 0-.3.1-.5 0-.1-.1-.2-.2-.4 0-.5 0-1.5-.1-3 0-.1-.1-.1-.2-.2v-.2h.1c0-.4-.5-1.6-.5-2.3 0-.7 0-1.1.1-1.4 0-.3 0-.3 0 0-.1 0-.1-.1-.1-.2l.1-.1c0-.6.1-.9.2-1v-.1c-.1-.1-.1-.3-.1-.5s.1-.4.2-.7c-.1-.2-.1-.6 0-1.2.1-.1.2-.5.3-1.2v-1.8h.1l.3-.4c.1-.2.2-.5.1-.9.1-.1.2-.4.2-.9.3-.1.4-.4.3-.7-.1 0-.1-.1-.1-.2.1-.2.1-.6.1-1.2.3-.1.4-.4.4-.9.1-.1.1-.3.2-.6l.6-.5h.4l.3-.5c.5-.3.8-.7 1.1-1l.3-.1c.3-.1.7-.5 1-1 .9-.3 1-.4 1.4-.8.1 0 .3 0 .6-.1 0-.1 0-.1.1-.2.5-.1.7-.2.6-.2h.1c.1-.3.4-.5.8-.5 0 .1.1.1.3.1.3-.1.6-.4.9-.7h.5l.4.6c.5-.1.4.3.8.3l.1-.1h1.5c.2.2.5.3.8.3l.3.3c.5 0 .8.3 1 .8.4.2.7.5.9 1l.3.2.3.2c.1.1.2.3.2.7.3.3.5.6.5.8l.4.5v.5c.1.2.3.5.6.8 0 .3.1.5.3.6 0 .1 0 .2.1.3v.8c-.1 0-.1.1-.1.2h.1v.7l-.3.5c.1.1.1.2.1.3-.2.1-.3.4-.3.7-.4.1-.6.4-.6.8l-1.5 1.5c-.3.3-.5.5-.8.6v.5c-.3.1-.5.3-.6.5h-.2c0 .2-.1.3-.2.4-.1.3-.2.5-.3.4l-.1.2-.8.6v.1c-.5.2-.7.5-.7.8-.5.3-1.1.7-1.8 1.4-.1 0-.3 0-.6.1 0 .3-.1.4-.4.3h-.4c0 .1 0 .1-.1.1l-.6.2c-.4.1-.6.2-.7.2-.3-.1-.5-.2-.6-.2-.1 0-.2 0-.2.1s0 .1.1.1v2.5c.1.1.2.2.2.5.1 0 .1.1 0 .4.1.1.2.4.2.7-.1.1-.2.3-.2.4 0 .2.1.4.2.5.1.4.1.7.1 1l.3.2c.3.1.5.2.5.3-.1 0-.2 0-.3.1 0 .3.2.5.5.6 0 .1 0 .1.1.2.7.1 1 .1.8.2v-.2c.2 0 .3.1.4.2l.2-.3c.5 0 .8-.1.9-.2h.3l.4-.2c.1-.1.2-.1.2-.2.3-.1.7-.5 1-1l.6-.6c.1-.1.2-.1.4-.1 0 .2.2 0 .6-.6l.4-.5c.1-.1.5-.4.6-.7-.1 0 0-.3.5-.9l.4-.8.4-.4v-.5c.2-.1.3-.1.3-.2 0-.5.2-1.1.6-1.8l-.1-.2h-.2v-.4h.3c0-.1.1-.3.2-.6.1-.1.2-.1.3-.1v-.2c.3-.1.4-.1.5-.1v-.2h.4c0-.1-.1-.2-.2-.3v-.4c.7-.1 1.2.1 1.5.5 0 .1.1.1.2.2l-.6 1zm-19.2-8.3v.3c0 .1 0 .1-.1.1v.1c.1 0 .1 0 .1.1v-.6zm.4 14.4c0 .1 0 .1 0 0v.4c.1-.1.1-.2 0-.4zm0-3.1l.2.1c.1.2.1.4.1.5.1-.1.1-.1.2-.1-.1-.1-.1-.1-.1-.2.2-.1.3-.2.3-.3h-.7zm.6-14.6zm.1 17.5c.1-.2.1-.4 0-.7h-.2c0 .1 0 .2.1.3-.1.1-.1.2-.1.4h.2zm0-12.9c-.1.3-.2.4-.1.5.1 0 .2 0 .3-.1.1-.3 0-.4-.2-.4zm1 3.3V30h-.4c0-.1 0-.1-.1-.2-.3-.1-.4-.2-.5-.3-.1.7 0 1.1.3 1.3.2-.2.3-.4.3-.6h.4zm-1 9.8c0 .2 0 .3.1.2l-.1-.2zm.7 2.9c0-.1 0-.2-.1-.3h-.2v.1c0 .1 0 .1.1.2h.2zm0-19.5c.1.1.1.1.1.2 0-.1 0-.1.1-.2h-.2zm1.4 21.4v-.2h-.1l.1.2zm2-17.4h-.2c0 .1.1.3.2.4l-.4.3-.1.2c.1.1.1.1.2.1v.3c-.1 0-.2 0-.2.1-.1.5-.1.8-.1 1.1h-.1c0 .1.1.3.2.5h.2c-.1-.1-.1-.2-.1-.3.1-.3.1-.6.2-.7h.1c0-.9.1-1.5.3-1.7l-.2-.3zm-.7 3.2v.6c.2-.1.2-.3 0-.6zm1.6-12.3c-.1 0-.2 0-.3.1v.3h.1c.1-.1.1-.1.2-.1v-.3zm0 17.7zm0 2.6v-.5h-.1l.1.5zm.2 1.5h-.2.2zm.4-20.7c-.1 0-.2.1-.3.2v.2c.2 0 .3 0 .4-.1-.1-.1-.1-.2-.1-.3zm-.3 8.8c.1.1.1.1.2 0h-.2zm6.7-2.3v-1.4c-.1-.1-.2-.1-.3-.1l.3-.2c0 .1-.2-.6-.6-2.2l-.6-1.4h-.1c-.1-.3-.1-.4-.1-.5-.5-.2-.9-.4-1.1-.6-.6.1-.9.3-.9.6-.2.1-.4.1-.5.1 0 .3-.1.4-.3.4-.1.2-.1.4-.1.5l-.3 1.3c-.3.6-.5 1.1-.6 1.6-.1.3 0 .4.1.5l-.1.1c-.1.3-.1.5-.2.5-.1.5-.3.8-.4.8 0 .3.2.5.2.6-.1.1-.1.1-.2.1v.8l-.2.5c-.1.8-.2 1.7-.4 2.7v1c-.1.1-.1.3-.2.6s0 .5.1.6c0 .1 0 .2-.1.4v.2c.3-.1.6-.2.8-.5.1-.1.3-.1.5-.1v-.1h.3c.1-.3.4-.5.7-.6.1-.3.4-.5.9-.5v-.2l.6-.3c1.2-.3 1.6-.4 1.2-.4.2-.4.4-.6.5-.7v-.2h-.2c.1-.4.3-.6.4-.6 0 .3 0 .2-.1-.3l.3-.2c.1-.5.1-.7.2-.8-.1-.1-.1-.2-.1-.4h.1c0-.5 0-.8.1-.8.1-.1.1-.2 0-.3.1-.1.1-.1.2-.1v-.4h.2zm-5.4-7c-.3.1-.4.2-.5.4l-.3.1c-.1.4 0 .7.2.8.1-.1.2-.1.3-.1v-.5c.1-.1.2-.1.3-.1.1-.4.2-.7.2-.8-.1 0-.1.1-.2.2zm-.7 8.1zm.7 15.7zm.9-25.4zm1.3 14.7c-.1.1-.1.1-.1.2h-.3c0 .3-.2.5-.5.6-.1.1-.1.2-.1.4.3-.1.4-.3.4-.4.3-.1.6-.2.8-.5-.1-.1-.2-.2-.2-.3zm.1-14.6zm0 18.2zm1.1-.5h-.2.2zm0 12.8zm.4-16.7c-.1-.1-.2-.1-.3-.1-.1.1-.1.2-.1.4.1-.1.2-.1.4-.1v-.2zm5.1 9.4v-.4h-.2l-1.2 1.2c.2.2 0 .5-.5.8.1.1.1.2.1.3l-.3.2c0 .1 0 .2.1.3-.3.5-.7.7-1.1.7l-.2.3-.7.2c-.3.2-.7.5-1.2 1h-.3c-.1.1 0 .2.1.3.1 0 .3-.1.7-.2l.4-.1c.1-.3.2-.4.3-.5l.3-.3c.6-.1 1 0 1.1.3l.2-.3.2-.2c.3-.3.4-.6.4-.9h.1c.3-1.1.7-1.9 1.4-2.4 0-.1 0-.2.1-.3h.2zm-4.1 6.6c0-.3-.1-.7-.2-1.1h-.2l-.1.1c.1.5.1.8.1 1h.4zm.2-23.3h-.3v-.1l.3.1zm-.1 2.9zM224 47c-.2-.1-.3-.1-.4 0v.2h.3l.1-.2zm.6-.2h-.2.2zm1.2-18.1c0-.1 0-.1 0 0h-.2.2zm.1 10.3c-.1-.1-.1-.1-.2-.1v.1h.2zm0-10.8c-.1.1-.1.1 0 .2v-.2zm.6-7c-.2.2-.3.3-.3.4l-.1.1c.1 0 .3 0 .4-.1v-.4zm0 6.7zm0 9.9v-.2h-.1l.1.2zm.4 1.5c-.1.1-.2.3-.2.6.2 0 .4-.2.5-.5-.1-.1-.2-.1-.3-.1zm0-17c.1.1.1.1 0 0zm.4 14.2c.1-.2.1-.3 0-.4v.4zm.4-13.6l-.1.2.1-.2zm0 .9zm0 11.3l-.1.2.1-.2zm.5-2.3zm.5 4.2v-.2h-.2c0 .1 0 .1.2.2zm0-3.7c0 .1 0 .1 0 0zm.3 1.9c-.1.1-.1.3 0 .5v-.5zm.3-2h.2-.2zM46.8 65.8v-1h14.6v1h-6.7v18.1h-1.2V65.8h-6.7zm21.6-1l7.5 19.1h-1.3l-2.4-6.1h-9.1l-2.4 6.1h-1.3l7.7-19.1h1.3zm3.5 11.9l-4.1-10.8h-.1l-4.2 10.8h8.4zm5.3-11.9h1.2v18.1h10.8v1h-12V64.8zm13.4 0h1.2v11l12-11h1.5l-8.7 7.9 9.2 11.1h-1.5l-8.6-10.3-4 3.6v6.7h-1.2v-19zm21.7 1v-1h14.6v1h-6.7v18.1H119V65.8h-6.7zm24.2 18.5c-5.7 0-9.1-4.4-9.1-10s3.4-10 9.1-10c5.7 0 9.1 4.4 9.1 10s-3.4 10-9.1 10zm0-1c5 0 7.9-4.1 7.9-9s-2.9-9-7.9-9-7.9 4.1-7.9 9 2.9 9 7.9 9zm20.1-18.5v11.4c0 2.3.5 7.1 6 7.1 4.7 0 6.2-2.8 6.2-7.1V64.8h1.2v11.4c0 4.5-1.7 8.1-7.4 8.1-6.8 0-7.2-5.6-7.2-8.1V64.8h1.2zm29.2 5.4c-.1-3.3-2.6-4.9-6.1-4.9-2.2 0-5.2.9-5.2 4.1 0 3.1 3.3 3.6 6.5 4.2 3.3.7 6.5 1.5 6.5 5.3 0 4-3.8 5.4-6.7 5.4-4.5 0-8.1-1.8-8-6.8h1.2c-.2 4.2 3.1 5.7 6.9 5.7 2.3 0 5.5-1 5.5-4.4 0-3.2-3.3-3.8-6.5-4.5-3.2-.7-6.5-1.4-6.5-5.1 0-3.7 3.4-5.1 6.4-5.1 4 0 7.1 1.7 7.3 5.9h-1.3z"/></svg>